<svg width="34" height="34" viewBox="0 0 34 34" fill="none" xmlns="http://www.w3.org/2000/svg">
<path fill-rule="evenodd" clip-rule="evenodd" d="M33.046 18.7516C31.8461 27.8379 23.5163 34.237 14.4366 33.0451C5.3454 31.8544 -1.04615 23.5215 0.142167 14.4352C1.33049 5.35001 9.66028 -1.04907 18.7515 0.142827C27.8312 1.33357 34.2343 9.66645 33.046 18.7516" fill="#A6C0E3"/>
<path fill-rule="evenodd" clip-rule="evenodd" d="M0.137947 14.1853C-0.093803 15.9292 -0.024278 17.6424 0.276997 19.2831C2.44386 20.8172 5.02787 21.8614 7.86681 22.2254C16.9862 23.3967 25.3524 17.1095 26.5575 8.18046C26.7892 6.43547 26.7197 4.72336 26.4068 3.08155C24.2399 1.54973 21.6675 0.50432 18.8286 0.140355C9.69764 -1.03091 1.33146 5.2574 0.137947 14.1853" fill="#C5D2E3"/>
<path fill-rule="evenodd" clip-rule="evenodd" d="M15.9211 20.1721C16.3424 17.0116 19.2311 14.7855 22.3967 15.2008C25.5503 15.615 27.777 18.513 27.3678 21.6735C26.9465 24.834 24.0577 27.0601 20.8922 26.6448C17.7386 26.2306 15.5119 23.3326 15.9211 20.1721" fill="#D2E3F7"/>
<path fill-rule="evenodd" clip-rule="evenodd" d="M12.9576 7.27644C12.7323 9.0543 11.0962 10.3071 9.31771 10.0724C7.53926 9.84011 6.29434 8.20922 6.51961 6.43136C6.75674 4.65469 8.39292 3.40189 10.1714 3.63538C11.9498 3.86887 13.1947 5.49858 12.9576 7.27644" fill="#D2E3F7"/>
</svg>
