<svg width="79" height="124" viewBox="0 0 79 124" fill="none" xmlns="http://www.w3.org/2000/svg">
<path fill-rule="evenodd" clip-rule="evenodd" d="M54.3478 122.95C51.0402 118.214 45.328 113.204 49.6521 107.056C51.2595 104.772 53.0061 102.842 54.0665 100.205C56.2776 94.711 55.1501 88.0414 50.0572 84.6314C48.9994 83.9229 47.7996 83.4578 46.6954 82.8319C43.6148 81.0889 41.9791 78.3318 42.8099 74.838C43.7309 70.9674 46.5199 67.9294 48.1402 64.3747C49.4792 61.4335 50.279 58.1721 48.8213 55.1357C48.1402 53.7129 47.0127 52.5605 46.2387 51.1965C44.0431 47.323 44.4895 42.3927 46.9147 38.7071C47.1624 38.3307 45.7434 38.6081 45.537 39.0968C44.1205 42.4482 41.5611 45.0159 42.4125 48.9804C42.9182 51.3311 44.8249 52.7272 45.8878 54.7836C47.5339 57.9657 46.5509 60.9754 44.9719 63.9436C41.5173 70.4424 36.7649 76.7856 43.331 83.0041C46.3574 85.8673 49.3631 87.8537 51.4246 91.5893C53.7801 95.8551 53.0345 99.7515 50.2481 103.502C48.1737 106.293 46.6128 108.916 46.7728 112.519C46.9534 116.6 50.0107 120.762 53.2487 123.061C53.4086 123.173 54.5206 123.197 54.3478 122.95Z" fill="url(#paint0_linear_0_118)"/>
<path fill-rule="evenodd" clip-rule="evenodd" d="M65.4831 115.761C61.4523 109.227 67.4973 104.154 68.3701 97.7594C68.6773 95.5097 68.241 93.2708 67.4043 91.1851C66.09 87.913 63.358 86.8245 60.9798 84.5152C57.4783 81.1117 60.7422 77.7556 63.0636 74.8952C64.977 72.538 66.2552 70.0152 66.4515 66.9412C66.6167 64.357 66.1132 61.8451 64.7963 59.6124C63.438 57.313 58.6093 54.3575 58.9062 51.6727C59.2213 48.8081 61.4833 46.8325 60.8765 43.7086C60.1689 40.0745 57.0212 38.0523 54.1059 36.2578C53.0885 35.6326 49.3675 32.0692 48.8356 32.2796C48.2907 32.4941 48.2623 32.6056 48.1306 33.2326C47.5858 35.7875 51.4669 37.667 53.0162 38.686C54.7953 39.8556 57.2407 41.5431 57.3388 43.9467C57.3982 45.407 56.5358 46.746 56.0038 48.0394C54.7256 51.1405 55.2627 53.2597 57.6952 55.5021C63.1127 60.4941 63.327 67.9706 58.6635 73.5772C56.5797 76.0803 54.0155 78.919 55.5468 82.4069C56.8379 85.3428 60.1431 86.5442 62.5239 88.361C67.4663 92.1337 67.8562 97.8524 65.2404 103.025C64.3728 104.738 63.2702 106.378 62.6608 108.211C61.8087 110.785 61.7983 113.985 64.1223 115.725C64.2953 115.852 65.6716 116.067 65.4831 115.761Z" fill="url(#paint1_linear_0_118)"/>
<path fill-rule="evenodd" clip-rule="evenodd" d="M40.039 107.047C39.2772 105.15 37.7433 103.761 36.9946 101.853C35.8506 98.937 37.0128 96.66 37.9045 93.9175C38.5467 91.9467 38.5363 89.7983 37.4677 87.9686C35.952 85.3765 32.9596 84.5789 30.8043 82.6897C27.9939 80.2257 28.2045 75.0812 29.6058 71.8978C30.7679 69.2589 33.425 67.0957 33.1728 63.9766C32.9856 61.6521 31.4309 59.722 29.7826 58.2019C27.6871 56.2679 25.0353 54.4752 24.6011 51.4259C24.1306 48.1274 26.876 46.1936 27.045 43.2836C27.084 42.5901 25.4903 39.6892 24.5595 40.6529C21.8973 43.4081 19.2247 47.7624 19.7212 51.8054C20.0384 54.383 21.7621 56.0895 23.7094 57.6117C25.3473 58.8905 28.3085 60.2755 28.9429 62.3796C29.8242 65.2999 26.265 68.2845 25.5007 70.9855C23.8472 76.8417 27.5623 83.4502 32.385 86.7521C33.6538 87.6194 35.2787 88.3346 36.225 89.5884C38.3907 92.4554 35.0109 96.6012 34.6235 99.6033C34.2361 102.589 36.1912 105.982 38.9185 107.138C39.0614 107.198 40.1794 107.395 40.039 107.047Z" fill="url(#paint2_linear_0_118)"/>
<path fill-rule="evenodd" clip-rule="evenodd" d="M74.4354 91.4261C76.2071 85.1134 69.6035 80.7339 64.9092 78.1194C60.7813 75.8215 55.8506 73.0343 57.3132 67.3549C57.8406 65.3106 58.8355 63.7626 58.4017 61.5601C57.9886 59.4639 56.6118 58.132 55.2012 56.6296C53.071 54.3563 51.8292 51.7247 52.9229 48.5268C53.4061 47.1057 54.3439 45.8649 54.8245 44.4389C56.1546 40.4789 53.5308 35.7726 49.7873 34.0616C49.273 33.8264 48.2182 35.3283 48.6703 35.6745C49.3041 36.1564 49.9977 36.5624 50.6264 37.0433C52.3488 38.3652 53.0164 39.0692 53.3931 41.2645C53.8217 43.7667 52.8164 44.6851 52.0111 46.8424C51.3486 48.6262 51.1823 50.5716 51.4733 52.4495C51.7902 54.4716 52.6319 56.3113 53.9646 57.8647C55.4973 59.6506 57.2353 61.1005 56.9703 63.8354C56.8612 64.9872 55.9415 66.3282 55.7259 67.5126C54.892 72.1251 57.7055 76.2501 61.4879 78.6318C66.5303 81.8075 74.4718 83.5382 73.4326 91.1599C73.3989 91.4025 74.3731 91.6501 74.4354 91.4261Z" fill="url(#paint3_linear_0_118)"/>
<path fill-rule="evenodd" clip-rule="evenodd" d="M29.3293 93.1705C26.2234 85.8459 39.1918 82.4123 36.239 75.0785C33.9297 69.3434 23.242 69.2769 26.1741 61.0997C27.5648 57.2248 31.9525 57.2599 34.2826 54.1576C35.4243 52.6369 36.0626 50.7398 36.2468 48.8593C36.7554 43.6463 33.4808 39.9245 29.9701 36.5251C29.4642 36.034 28.4237 37.9436 29.0075 38.3384C29.9727 38.992 31.021 39.5993 31.815 40.458C32.9204 41.6501 35.3257 47.2988 35.157 48.9291C34.9209 51.2283 33.6287 53.1464 31.6515 54.3294C29.7029 55.4961 27.7283 56.1486 26.3687 58.0662C24.3422 60.9305 23.7454 65.2808 25.5669 68.3821C27.7283 72.0656 33.5794 72.3857 34.9832 76.559C37.238 83.2634 24.804 86.5908 27.9151 93.8129C28.0708 94.1749 29.4927 93.5519 29.3293 93.1705Z" fill="url(#paint4_linear_0_118)"/>
<path fill-rule="evenodd" clip-rule="evenodd" d="M56.5098 110.996C57.2954 106.147 51.9621 101.847 48.9545 98.7696C47.7659 97.5551 46.4481 96.3983 45.5463 94.9446C44.169 92.7209 44.7349 90.4319 45.784 88.2024C47.1328 85.3334 48.9545 82.6876 50.4118 79.8732C53.4505 74.0041 49.3214 68.0791 44.6161 64.5813C43.4688 63.7296 41.8332 63.1085 40.8384 62.0992C38.7867 60.0162 39.5619 57.1553 40.2725 54.7097C41.3422 51.0266 44.2207 47.9185 44.4869 44.1068C44.5127 43.7179 44.3887 41.6478 43.5256 42.1392C39.5722 44.3873 37.5697 49.4961 36.4974 53.7605C35.6834 57.007 35.7816 60.0496 38.1795 62.5687C41.2389 65.7821 45.7711 66.825 47.6832 71.2532C49.3343 75.0776 47.9183 79.0166 46.063 82.4303C43.2517 87.6051 41.6988 92.9028 45.1742 98.2256C46.6806 100.534 48.6547 101.547 50.6469 103.286C53.0603 105.394 54.4014 107.61 55.2205 110.676C55.2851 110.923 56.4659 111.281 56.5098 110.996Z" fill="url(#paint5_linear_0_118)"/>
<path fill-rule="evenodd" clip-rule="evenodd" d="M18.8473 78.2642C17.4341 75.9597 15.2011 73.7959 15.1883 70.8967C15.1755 68.6501 16.8842 67.2854 17.6987 65.2901C18.7522 62.7151 18.2152 60.9581 16.2392 59.0158C15.2166 58.0124 13.626 57.3229 12.7704 56.1744C10.7584 53.479 14.4842 51.182 15.4093 48.9879C16.0825 47.3867 15.6791 41.2024 13.1558 42.3707C12.9888 42.4478 11.8042 43.3579 12.2051 43.5926C15.6714 45.625 12.295 48.133 11.0848 49.963C10.3293 51.1073 9.73062 52.3682 9.89507 53.7835C10.134 55.8372 11.7657 57.3473 13.2534 58.5765C15.805 60.6887 17.3261 62.1933 15.7793 65.6081C15.1677 66.9552 14.5819 68.3251 14.1708 69.7529C13.1764 73.2116 15.268 76.1975 17.9788 78.1957C18.0739 78.266 18.9681 78.4586 18.8473 78.2642Z" fill="url(#paint6_linear_0_118)"/>
<path fill-rule="evenodd" clip-rule="evenodd" d="M72.2917 71.2064C70.6625 67.3784 74.7097 63.767 75.7408 60.2457C76.7204 56.901 74.9674 54.5879 72.1318 52.933C69.2189 51.2331 67.0819 50.5764 68.9121 46.8238C69.835 44.925 70.7424 43.5575 70.3918 41.339C69.7293 37.1804 65.9812 35.2645 62.3361 34.3753C61.2663 34.1145 62.2768 36.8643 63.5606 36.8048C67.5175 36.6217 68.9173 41.2552 67.7212 44.3112C67.2082 45.6187 66.3214 46.5289 66.2673 47.9927C66.1642 50.6954 68.0563 52.829 70.165 54.2185C71.6111 55.1701 73.6579 55.8829 74.5086 57.5358C75.7511 59.9594 73.8203 62.4952 72.5881 64.4405C71.3147 66.4521 70.1495 68.6998 71.3301 71.013C71.4461 71.2411 72.3638 71.38 72.2917 71.2064Z" fill="url(#paint7_linear_0_118)"/>
<path fill-rule="evenodd" clip-rule="evenodd" d="M5.98282 35.9622C5.98282 35.9622 -3.80969 46.4807 2.168 50.8555C8.14568 55.2302 7.65035 45.8744 13.3817 45.5716C19.113 45.2687 17.4558 53.4586 24.6161 50.5215C31.7738 47.5843 27.1446 42.7109 32.7307 41.648C38.3168 40.5848 38.877 53.1742 47.2068 50.9475C54.4242 49.0183 47.6659 39.8354 54.8235 36.8983C61.9838 33.9611 63.0574 43.5433 68.5346 40.1738C74.8442 36.2915 67.2691 31.7505 75.3059 33.0006C81.7037 33.9961 79.0974 26.1262 68.1119 25.8539C57.1264 25.5819 5.98282 35.9622 5.98282 35.9622Z" fill="url(#paint8_linear_0_118)"/>
<path fill-rule="evenodd" clip-rule="evenodd" d="M6.20239 36.2585C5.54728 36.983 0.207972 43.0512 0.632631 47.5088C0.754332 48.788 1.35507 49.8305 2.41413 50.6068C3.58453 51.4633 4.54778 51.8147 5.35307 51.6819C6.48722 51.4949 7.26922 50.3828 8.17291 49.0948C9.38474 47.3687 10.7597 45.4125 13.4164 45.2721C16.143 45.1274 17.3186 46.8203 18.3673 48.3126C19.6698 50.1689 20.7936 51.7723 24.5326 50.2373C28.1319 48.76 28.6213 46.8004 29.0537 45.0717C29.4602 43.4412 29.846 41.9013 32.6944 41.3588C35.3692 40.85 36.9358 43.1864 38.5904 45.6605C40.6205 48.693 42.7179 51.8297 47.1276 50.6503C50.5248 49.7419 50.6181 47.2046 50.7268 44.2669C50.833 41.409 50.9521 38.1697 54.6938 36.6337C58.5493 35.0521 60.7296 36.9511 62.6509 38.6267C64.4557 40.1998 65.8799 41.4406 68.3398 39.9269C71.1855 38.1754 71.0535 36.3662 70.9447 34.9128C70.8877 34.1165 70.836 33.4291 71.3357 32.9684C71.9054 32.443 73.0577 32.3726 75.3078 32.7224C76.6931 32.9381 77.7367 32.725 78.1691 32.1372C78.4746 31.7232 78.4643 31.1333 78.1406 30.4759C77.1774 28.5079 73.6144 26.3277 68.0705 26.1902C67.9333 26.1868 67.7857 26.1853 67.6329 26.1853C56.2137 26.1853 8.68561 35.7564 6.20239 36.2585ZM5.01374 52.3173C4.1463 52.3173 3.17269 51.9154 2.05408 51.0977C0.847427 50.2142 0.166419 49.0257 0.0265926 47.5658C-0.447264 42.5701 5.56528 36.048 5.82163 35.7727L5.88895 35.7015L5.98217 35.6818C6.49487 35.5783 57.2235 25.3121 68.0859 25.5822C73.9146 25.7264 77.6097 28.0097 78.6868 30.2081C79.1141 31.0792 79.1037 31.8925 78.6584 32.4982C78.0783 33.2854 76.8561 33.5782 75.2145 33.3234C73.2491 33.0171 72.1487 33.0469 71.7473 33.4156C71.4651 33.6769 71.5039 34.2025 71.5531 34.8677C71.6593 36.3139 71.8198 38.4996 68.6582 40.445C65.8176 42.1944 64.0025 40.6136 62.2494 39.0853C60.3747 37.4493 58.4327 35.7567 54.9267 37.1964C51.5449 38.5837 51.444 41.3552 51.3352 44.2895C51.2264 47.202 51.1151 50.2137 47.2828 51.2381C46.5733 51.4281 45.9156 51.5149 45.3045 51.5151C41.7778 51.5156 39.8332 48.6085 38.0853 45.9987C36.4773 43.5965 35.0894 41.5217 32.8082 41.9564C30.3405 42.4259 30.0479 43.5976 29.6439 45.219C29.2012 46.9954 28.6496 49.2059 24.763 50.8002C20.5733 52.5193 19.1984 50.5583 17.8674 48.6619C16.8187 47.1665 15.8296 45.755 13.4474 45.8796C11.0884 46.0044 9.85848 47.7533 8.66995 49.4444C7.72742 50.7865 6.83926 52.0537 5.45135 52.2821C5.30893 52.3057 5.16393 52.3173 5.01374 52.3173Z" fill="#FFC7E8"/>
<path fill-rule="evenodd" clip-rule="evenodd" d="M4.07104 39.8542C4.07104 39.8542 -5.88272 7.77886 29.9984 0.951952C65.8795 -5.87521 68.7898 26.2578 68.7898 26.2578C68.7898 26.2578 58.7146 33.9432 38.3005 37.8274C17.8864 41.7118 4.07104 39.8542 4.07104 39.8542Z" fill="url(#paint9_linear_0_118)"/>
<path fill-rule="evenodd" clip-rule="evenodd" d="M10.4961 34.3752C5.6806 30.7973 4.00405 20.695 13.8492 13.1184C23.6944 5.54198 34.5867 8.27787 36.6811 12.4871C38.7755 16.6962 31.863 19.0115 30.6069 23.852C29.3482 28.6927 37.5194 23.852 38.5666 28.2716C39.6138 32.6915 19.6707 41.1868 10.4961 34.3752Z" fill="url(#paint10_linear_0_118)"/>
<path fill-rule="evenodd" clip-rule="evenodd" d="M53.5096 10.3109C51.9817 12.3929 56.8906 16.8675 57.5256 21.3093C58.1581 25.7508 64.0768 29.135 63.4443 20.4631C62.8093 11.7915 55.8338 7.13822 53.5096 10.3109Z" fill="url(#paint11_linear_0_118)"/>
<defs>
<linearGradient id="paint0_linear_0_118" x1="47.5972" y1="38.5321" x2="47.5972" y2="123.142" gradientUnits="userSpaceOnUse">
<stop stop-color="#FB8B9A"/>
<stop offset="1" stop-color="#E76072" stop-opacity="0.21"/>
</linearGradient>
<linearGradient id="paint1_linear_0_118" x1="58.2736" y1="32.2707" x2="58.2736" y2="115.917" gradientUnits="userSpaceOnUse">
<stop stop-color="#EF7C8D"/>
<stop offset="1" stop-color="#EF7C8D" stop-opacity="0"/>
</linearGradient>
<linearGradient id="paint2_linear_0_118" x1="29.8562" y1="40.4587" x2="29.8562" y2="107.248" gradientUnits="userSpaceOnUse">
<stop stop-color="#EF7C8D"/>
<stop offset="1" stop-color="#EF7C8D" stop-opacity="0"/>
</linearGradient>
<linearGradient id="paint3_linear_0_118" x1="61.6452" y1="34.0367" x2="61.6452" y2="91.5138" gradientUnits="userSpaceOnUse">
<stop stop-color="#FB8B9A"/>
<stop offset="1" stop-color="#E76072"/>
</linearGradient>
<linearGradient id="paint4_linear_0_118" x1="30.5788" y1="36.4449" x2="30.5788" y2="93.922" gradientUnits="userSpaceOnUse">
<stop stop-color="#FB8B9A"/>
<stop offset="1" stop-color="#E76072" stop-opacity="0.21"/>
</linearGradient>
<linearGradient id="paint5_linear_0_118" x1="46.3126" y1="42.0642" x2="46.3126" y2="111.101" gradientUnits="userSpaceOnUse">
<stop stop-color="#EF7C8D"/>
<stop offset="1" stop-color="#EF7C8D" stop-opacity="0"/>
</linearGradient>
<linearGradient id="paint6_linear_0_118" x1="14.3631" y1="42.2248" x2="14.3631" y2="78.3487" gradientUnits="userSpaceOnUse">
<stop stop-color="#FB8B9A"/>
<stop offset="1" stop-color="#E76072" stop-opacity="0.21"/>
</linearGradient>
<linearGradient id="paint7_linear_0_118" x1="68.9503" y1="34.3578" x2="68.9503" y2="71.2844" gradientUnits="userSpaceOnUse">
<stop stop-color="#FB8B9A"/>
<stop offset="1" stop-color="#E76072" stop-opacity="0.21"/>
</linearGradient>
<linearGradient id="paint8_linear_0_118" x1="39.4893" y1="25.8486" x2="39.4893" y2="52.0184" gradientUnits="userSpaceOnUse">
<stop stop-color="#FFBDC8"/>
<stop offset="1" stop-color="#FF738B"/>
</linearGradient>
<linearGradient id="paint9_linear_0_118" x1="35.7967" y1="0" x2="35.7967" y2="40.2982" gradientUnits="userSpaceOnUse">
<stop stop-color="#FBAEBC"/>
<stop offset="1" stop-color="#FE708A"/>
</linearGradient>
<linearGradient id="paint10_linear_0_118" x1="22.6315" y1="8.34863" x2="22.6315" y2="36.9266" gradientUnits="userSpaceOnUse">
<stop stop-color="#FBC4CD"/>
<stop offset="1" stop-color="#FBC4CD" stop-opacity="0"/>
</linearGradient>
<linearGradient id="paint11_linear_0_118" x1="58.354" y1="9.31192" x2="58.354" y2="25.8486" gradientUnits="userSpaceOnUse">
<stop stop-color="#FBC4CD"/>
<stop offset="1" stop-color="#FBC4CD" stop-opacity="0"/>
</linearGradient>
</defs>
</svg>
