<svg width="169" height="34" viewBox="0 0 169 34" fill="none" xmlns="http://www.w3.org/2000/svg">
<path d="M40.5054 22.9041L35.1383 12.4158H38.0574L41.2735 19.4524L44.2029 12.4158H45.9338L48.8529 19.4524L52.0691 12.4158H54.9881L49.6314 22.9041H47.9209L45.0632 16.0826L42.2056 22.9041H40.5054ZM61.3909 23.2318C60.4213 23.2318 59.5405 22.9928 58.7484 22.5148C57.9631 22.03 57.3384 21.3677 56.874 20.5278C56.4165 19.6879 56.1878 18.7286 56.1878 17.6497C56.1878 16.5845 56.4097 15.6353 56.8535 14.8023C57.3042 13.9624 57.9222 13.3001 58.7074 12.8153C59.4927 12.3305 60.3872 12.0881 61.3909 12.0881C62.2103 12.0881 62.9649 12.2588 63.6545 12.6002C64.3442 12.9416 64.8904 13.4162 65.2933 14.0239V12.4158H67.8437V22.9041H65.2933V21.2243C64.829 21.8593 64.2588 22.3544 63.5828 22.7094C62.9136 23.0577 62.183 23.2318 61.3909 23.2318ZM62.1182 21.0502C62.7532 21.0502 63.3131 20.9068 63.7979 20.62C64.2827 20.3264 64.6651 19.9235 64.9451 19.4114C65.225 18.8993 65.365 18.3154 65.365 17.6599C65.365 16.9976 65.225 16.4138 64.9451 15.9085C64.6651 15.3964 64.2827 14.9969 63.7979 14.7101C63.3131 14.4165 62.7532 14.2697 62.1182 14.2697C61.49 14.2697 60.93 14.4165 60.4384 14.7101C59.9468 14.9969 59.561 15.3964 59.281 15.9085C59.001 16.4206 58.8611 17.0044 58.8611 17.6599C58.8611 18.3154 59.001 18.8993 59.281 19.4114C59.561 19.9235 59.9468 20.3264 60.4384 20.62C60.93 20.9068 61.49 21.0502 62.1182 21.0502ZM74.917 23.2318C73.9679 23.2318 73.227 22.9245 72.6944 22.31C72.1686 21.6954 71.9057 20.8317 71.9057 19.7187V14.3516H70.6254V12.4158H71.9057V8.49296H74.4561V12.4158H76.8733V14.3516H74.4561V19.5445C74.4561 20.002 74.5483 20.3537 74.7327 20.5995C74.917 20.8385 75.1799 20.958 75.5213 20.958C75.8764 20.958 76.2007 20.8487 76.4944 20.6302L77.1396 22.6685C76.8324 22.846 76.4807 22.9826 76.0847 23.0782C75.6886 23.1806 75.2994 23.2318 74.917 23.2318ZM85.0602 23.2318C83.9404 23.2318 82.9366 22.9894 82.049 22.5046C81.1681 22.0198 80.4682 21.3574 79.9493 20.5176C79.4371 19.6777 79.1811 18.732 79.1811 17.6804C79.1811 16.902 79.3279 16.1748 79.6215 15.4988C79.9151 14.8228 80.3214 14.2287 80.8403 13.7166C81.3593 13.2045 81.9636 12.805 82.6533 12.5182C83.3429 12.2314 84.0872 12.0881 84.8861 12.0881C85.9786 12.0881 86.9346 12.3134 87.754 12.7641C88.5802 13.2147 89.2221 13.8429 89.6796 14.6487C90.1439 15.4544 90.376 16.3933 90.376 17.4653C90.376 17.5541 90.3726 17.6292 90.3658 17.6907C90.359 17.7453 90.3453 17.8409 90.3248 17.9774H81.7826C81.7826 18.6125 81.926 19.1724 82.2128 19.6572C82.4996 20.1352 82.8991 20.5107 83.4112 20.7839C83.9301 21.0502 84.5242 21.1833 85.1934 21.1833C85.8284 21.1833 86.3917 21.057 86.8834 20.8044C87.3818 20.5449 87.8325 20.1523 88.2354 19.6265L90.0893 20.579C89.5908 21.4121 88.8977 22.0642 88.01 22.5353C87.1292 22.9996 86.1459 23.2318 85.0602 23.2318ZM81.8953 16.3796H87.8462C87.7574 15.9016 87.5764 15.4885 87.3033 15.1403C87.0302 14.7921 86.6854 14.5223 86.2688 14.3311C85.8523 14.1331 85.388 14.0341 84.8759 14.0341C84.3364 14.0341 83.855 14.1297 83.4317 14.3209C83.0083 14.5121 82.6635 14.7818 82.3972 15.1301C82.1309 15.4783 81.9636 15.8948 81.8953 16.3796ZM93.4251 22.9041V12.4158H95.9754V13.9419C96.3442 13.341 96.8051 12.8835 97.3582 12.5694C97.9113 12.2485 98.519 12.0881 99.1813 12.0881C99.5296 12.0881 99.8846 12.1359 100.247 12.2314C100.615 12.3202 100.929 12.4397 101.189 12.5899L100.134 14.7511C99.9085 14.6145 99.6456 14.5053 99.3452 14.4233C99.0516 14.3414 98.7785 14.3004 98.5258 14.3004C98.0888 14.3004 97.6757 14.4131 97.2865 14.6384C96.8973 14.8637 96.5798 15.154 96.3339 15.509C96.0949 15.8641 95.9754 16.2465 95.9754 16.6562V22.9041H93.4251ZM106.841 22.9041L101.474 12.4158H104.393L107.609 19.4524L110.539 12.4158H112.27L115.189 19.4524L118.405 12.4158H121.324L115.967 22.9041H114.257L111.399 16.0826L108.541 22.9041H106.841ZM128.544 23.2318C127.411 23.2318 126.386 22.9962 125.471 22.5251C124.563 22.0539 123.843 21.3984 123.31 20.5585C122.778 19.7187 122.511 18.7525 122.511 17.6599C122.511 16.5606 122.778 15.5944 123.31 14.7613C123.843 13.9214 124.563 13.2659 125.471 12.7948C126.38 12.3236 127.404 12.0881 128.544 12.0881C129.678 12.0881 130.698 12.3236 131.607 12.7948C132.522 13.2659 133.242 13.9214 133.768 14.7613C134.3 15.5944 134.567 16.5606 134.567 17.6599C134.567 18.7525 134.3 19.7187 133.768 20.5585C133.242 21.3984 132.522 22.0539 131.607 22.5251C130.698 22.9962 129.678 23.2318 128.544 23.2318ZM128.544 21.0399C129.186 21.0399 129.76 20.8965 130.265 20.6097C130.777 20.3161 131.18 19.9167 131.473 19.4114C131.767 18.8993 131.914 18.3154 131.914 17.6599C131.914 16.9976 131.767 16.4138 131.473 15.9085C131.18 15.3964 130.777 14.9969 130.265 14.7101C129.76 14.4233 129.186 14.2799 128.544 14.2799C127.909 14.2799 127.336 14.4233 126.823 14.7101C126.311 14.9969 125.908 15.3964 125.615 15.9085C125.321 16.4138 125.174 16.9976 125.174 17.6599C125.174 18.3154 125.321 18.8993 125.615 19.4114C125.908 19.9167 126.311 20.3161 126.823 20.6097C127.336 20.8965 127.909 21.0399 128.544 21.0399ZM137.616 22.9041V12.4158H140.166V13.9419C140.535 13.341 140.996 12.8835 141.549 12.5694C142.102 12.2485 142.709 12.0881 143.372 12.0881C143.72 12.0881 144.075 12.1359 144.437 12.2314C144.806 12.3202 145.12 12.4397 145.379 12.5899L144.324 14.7511C144.099 14.6145 143.836 14.5053 143.536 14.4233C143.242 14.3414 142.969 14.3004 142.716 14.3004C142.279 14.3004 141.866 14.4131 141.477 14.6384C141.088 14.8637 140.77 15.154 140.524 15.509C140.285 15.8641 140.166 16.2465 140.166 16.6562V22.9041H137.616ZM147.498 22.9041V5.28708H150.048V16.4206L154.043 12.4158H157.351L152.343 17.4858L157.587 22.9041H154.309L150.048 18.4588V22.9041H147.498ZM162.949 23.2318C162.068 23.2318 161.283 23.0679 160.593 22.7402C159.911 22.4056 159.354 21.9276 158.924 21.3062L160.051 19.647C160.453 20.1796 160.901 20.5927 161.392 20.8863C161.891 21.1799 162.406 21.3267 162.939 21.3267C163.267 21.3267 163.557 21.2687 163.81 21.1526C164.062 21.0297 164.264 20.8556 164.414 20.6302C164.564 20.3981 164.639 20.1249 164.639 19.8108C164.639 19.4831 164.554 19.227 164.383 19.0427C164.212 18.8583 163.956 18.691 163.615 18.5408C163.274 18.3906 162.843 18.213 162.324 18.0082C161.887 17.8238 161.471 17.619 161.075 17.3936C160.679 17.1683 160.351 16.8849 160.092 16.5435C159.839 16.1953 159.713 15.7548 159.713 15.2222C159.713 14.6145 159.88 14.0751 160.214 13.6039C160.556 13.1328 161.02 12.7641 161.607 12.4977C162.202 12.2314 162.878 12.0983 163.635 12.0983C164.182 12.0983 164.731 12.1973 165.284 12.3953C165.838 12.5865 166.391 12.8665 166.944 13.2352L166.022 14.8433C165.223 14.1809 164.434 13.8497 163.656 13.8497C163.198 13.8497 162.83 13.959 162.55 14.1775C162.277 14.396 162.14 14.676 162.14 15.0174C162.14 15.2973 162.26 15.5363 162.499 15.7344C162.738 15.9324 163.035 16.1065 163.39 16.2567C163.745 16.4069 164.1 16.5503 164.455 16.6869C165.015 16.8917 165.506 17.1103 165.93 17.3424C166.353 17.5746 166.684 17.875 166.923 18.2437C167.162 18.6125 167.282 19.1041 167.282 19.7187C167.282 20.4561 167.104 21.0877 166.749 21.6135C166.401 22.1393 165.902 22.5422 165.254 22.8221C164.605 23.0952 163.837 23.2318 162.949 23.2318Z" fill="#454545"/>
<g clip-path="url(#clip0_0_469)">
<path d="M16.2172 4.97227L9.52762 11.6619C8.20471 12.9849 7.30383 14.6705 6.93889 16.5055C6.57395 18.3406 6.76135 20.2426 7.47738 21.9712C8.19342 23.6997 9.40593 25.1771 10.9616 26.2165C12.5173 27.256 14.3462 27.8108 16.2172 27.8108C18.0882 27.8108 19.9171 27.256 21.4728 26.2165C23.0285 25.1771 24.241 23.6997 24.957 21.9712C25.6731 20.2426 25.8605 18.3406 25.4955 16.5055C25.1306 14.6705 24.2297 12.9849 22.9068 11.6619L16.2172 4.97227ZM16.2172 1.15042L24.8177 9.75093C26.5187 11.4519 27.6771 13.6192 28.1464 15.9785C28.6157 18.3379 28.3748 20.7834 27.4542 23.0059C26.5336 25.2284 24.9747 27.1279 22.9745 28.4644C20.9744 29.8009 18.6228 30.5142 16.2172 30.5142C13.8116 30.5142 11.4601 29.8009 9.45989 28.4644C7.45972 27.1279 5.90077 25.2284 4.98019 23.0059C4.0596 20.7834 3.81873 18.3379 4.28802 15.9785C4.75732 13.6192 5.9157 11.4519 7.6167 9.75093L16.2172 1.15042V1.15042ZM9.46005 18.3514H22.9744C22.9744 20.1435 22.2624 21.8623 20.9952 23.1295C19.728 24.3967 18.0093 25.1086 16.2172 25.1086C14.4251 25.1086 12.7064 24.3967 11.4392 23.1295C10.172 21.8623 9.46005 20.1435 9.46005 18.3514V18.3514Z" fill="url(#paint0_linear_0_469)"/>
</g>
<defs>
<linearGradient id="paint0_linear_0_469" x1="16.2172" y1="1.15042" x2="16.2172" y2="30.5142" gradientUnits="userSpaceOnUse">
<stop stop-color="#1B18F9"/>
<stop offset="0.463542" stop-color="#1B18F9"/>
<stop offset="1" stop-color="#E146AD"/>
</linearGradient>
<clipPath id="clip0_0_469">
<rect width="32.4343" height="32.4343" fill="white" transform="translate(0 0.782837)"/>
</clipPath>
</defs>
</svg>
