<svg width="224" height="130" viewBox="0 0 224 130" fill="none" xmlns="http://www.w3.org/2000/svg">
<path fill-rule="evenodd" clip-rule="evenodd" d="M141.675 45.7287C141.675 45.7287 148.311 42.8913 151.567 46.5171C151.567 46.5171 146.357 47.9823 145.521 48.9865C144.69 49.9903 141.675 45.7287 141.675 45.7287Z" fill="url(#paint0_linear_0_134)"/>
<path fill-rule="evenodd" clip-rule="evenodd" d="M139.122 54.6577C139.122 54.6577 137.551 57.2964 137.748 61.9031C137.748 61.9031 132.576 57.2198 134.968 53.5663C136.156 51.7483 139.122 54.6577 139.122 54.6577Z" fill="url(#paint1_linear_0_134)"/>
<path fill-rule="evenodd" clip-rule="evenodd" d="M153.513 60.0518C153.513 60.0518 156.022 58.3344 160.197 60.2744C161.863 61.0503 164.33 63.3375 164.33 63.3375C164.33 63.3375 160.639 64.3848 156.721 63.3235C156.721 63.3235 157.904 68.367 157.287 71.4758C157.287 71.4758 152.721 67.3389 152.536 62.7189C152.397 59.2089 153.513 60.0518 153.513 60.0518Z" fill="url(#paint2_linear_0_134)"/>
<path fill-rule="evenodd" clip-rule="evenodd" d="M156.672 63.1795C156.672 63.1795 149.993 40.9854 126.997 40.5242C126.997 40.5242 129.386 58.5174 156.672 63.1795Z" fill="#A5BCDA"/>
<path fill-rule="evenodd" clip-rule="evenodd" d="M156.672 63.1792C156.672 63.1792 134.674 50.5109 126.997 40.5242C126.997 40.5242 127.747 49.3567 139.105 57.032C148.416 63.3218 156.672 63.1792 156.672 63.1792Z" fill="url(#paint3_linear_0_134)"/>
<path fill-rule="evenodd" clip-rule="evenodd" d="M131.357 49.9726C131.357 49.9726 134.527 52.5079 137.604 48.3323C139.914 45.2016 136.947 42.3232 136.947 42.3232C136.947 42.3232 133.312 40.4784 126.997 40.5251C126.997 40.5251 128.15 47.1207 131.357 49.9726Z" fill="#E9E7FC"/>
<path fill-rule="evenodd" clip-rule="evenodd" d="M132.429 45.1299C132.507 45.8306 133.136 46.3367 133.838 46.2601C134.536 46.1831 135.04 45.5532 134.967 44.8524C134.889 44.1517 134.26 43.6462 133.557 43.7227C132.86 43.7988 132.356 44.4292 132.429 45.1299Z" fill="white"/>
<path fill-rule="evenodd" clip-rule="evenodd" d="M133.063 45.0609C133.105 45.4113 133.417 45.6643 133.766 45.6257C134.119 45.5872 134.369 45.2723 134.333 44.922C134.296 44.5716 133.979 44.3186 133.63 44.3571C133.277 44.3951 133.027 44.7106 133.063 45.0609Z" fill="url(#paint4_linear_0_134)"/>
<path fill-rule="evenodd" clip-rule="evenodd" d="M126.997 40.5242L129.869 42.501L129.128 43.0769L126.997 40.5242Z" fill="url(#paint5_linear_0_134)"/>
<path fill-rule="evenodd" clip-rule="evenodd" d="M95.0561 44.0342C95.0561 44.0342 91.889 50.5899 95.6611 53.9259C95.6611 53.9259 97.3394 48.7609 98.4284 47.9513C99.5122 47.1423 95.0561 44.0342 95.0561 44.0342Z" fill="url(#paint6_linear_0_134)"/>
<path fill-rule="evenodd" clip-rule="evenodd" d="M103.791 41.8006C103.791 41.8006 106.577 40.2822 111.362 40.5863C111.362 40.5863 106.613 35.2824 102.755 37.6006C100.839 38.7537 103.791 41.8006 103.791 41.8006Z" fill="url(#paint7_linear_0_134)"/>
<path fill-rule="evenodd" clip-rule="evenodd" d="M108.942 56.1459C108.942 56.1459 107.163 58.6089 109.009 62.8144C109.743 64.4963 111.979 67.0085 111.979 67.0085C111.979 67.0085 113.113 63.3514 112.141 59.4188C112.141 59.4188 117.17 60.7104 120.296 60.1677C120.296 60.1677 116.26 55.5181 111.636 55.2303C108.12 55.0113 108.942 56.1459 108.942 56.1459Z" fill="url(#paint8_linear_0_134)"/>
<path fill-rule="evenodd" clip-rule="evenodd" d="M112.319 59.3504C112.319 59.3504 90.2349 52.2106 90.3021 29.3561C90.3021 29.3561 108.277 32.1446 112.319 59.3504Z" fill="#A5BCDA"/>
<path fill-rule="evenodd" clip-rule="evenodd" d="M112.316 59.3504C112.316 59.3504 100.134 37.2119 90.302 29.3561C90.302 29.3561 99.1354 30.3068 106.561 41.7631C112.652 51.1526 112.316 59.3504 112.316 59.3504Z" fill="url(#paint9_linear_0_134)"/>
<path fill-rule="evenodd" clip-rule="evenodd" d="M99.4974 33.8843C99.4974 33.8843 101.914 37.0805 97.7437 40.0301C94.6185 42.2423 91.8604 39.2401 91.8604 39.2401C91.8604 39.2401 90.1322 35.6052 90.3157 29.3561C90.3157 29.3561 96.7699 30.6472 99.4974 33.8843Z" fill="#E9E7FC"/>
<path fill-rule="evenodd" clip-rule="evenodd" d="M94.6168 34.7919C95.3143 34.8845 95.8088 35.5259 95.7151 36.2246C95.6214 36.9232 94.9811 37.4152 94.2836 37.322C93.5809 37.2299 93.0916 36.588 93.1853 35.8893C93.2738 35.1906 93.9192 34.6992 94.6168 34.7919Z" fill="white"/>
<path fill-rule="evenodd" clip-rule="evenodd" d="M94.536 35.4244C94.8848 35.4707 95.1294 35.7914 95.0826 36.1408C95.0357 36.4906 94.7182 36.7359 94.3694 36.6895C94.0206 36.6437 93.7708 36.3225 93.8176 35.9731C93.8645 35.6238 94.1872 35.3781 94.536 35.4244Z" fill="url(#paint10_linear_0_134)"/>
<path fill-rule="evenodd" clip-rule="evenodd" d="M90.302 29.3561L92.2519 32.2279L92.8547 31.5145L90.302 29.3561Z" fill="url(#paint11_linear_0_134)"/>
<path fill-rule="evenodd" clip-rule="evenodd" d="M134.224 85.8347C134.224 85.8347 131.262 92.3883 134.788 95.7265C134.788 95.7265 136.355 90.5605 137.367 89.7515C138.384 88.9426 134.224 85.8347 134.224 85.8347Z" fill="url(#paint12_linear_0_134)"/>
<path fill-rule="evenodd" clip-rule="evenodd" d="M143.041 83.2821C143.041 83.2821 145.821 81.7639 150.61 82.0675C150.61 82.0675 145.862 76.7642 142.005 79.0819C140.084 80.2357 143.041 83.2821 143.041 83.2821Z" fill="url(#paint13_linear_0_134)"/>
<path fill-rule="evenodd" clip-rule="evenodd" d="M148.169 97.6289C148.169 97.6289 146.438 100.09 148.235 104.295C148.954 105.977 151.131 108.49 151.131 108.49C151.131 108.49 152.234 104.834 151.287 100.901C151.287 100.901 156.178 102.193 159.225 101.649C159.225 101.649 155.297 96.9981 150.791 96.711C147.374 96.4956 148.169 97.6289 148.169 97.6289Z" fill="url(#paint14_linear_0_134)"/>
<path fill-rule="evenodd" clip-rule="evenodd" d="M151.248 101.151C151.248 101.151 129.484 93.936 129.55 70.8376C129.55 70.8376 147.264 73.6561 151.248 101.151Z" fill="#A5BCDA"/>
<path fill-rule="evenodd" clip-rule="evenodd" d="M151.245 101.151C151.245 101.151 139.235 78.7793 129.55 70.8376C129.55 70.8376 138.255 71.7979 145.574 83.3782C151.571 92.8667 151.245 101.151 151.245 101.151Z" fill="url(#paint15_linear_0_134)"/>
<path fill-rule="evenodd" clip-rule="evenodd" d="M138.72 75.3678C138.72 75.3678 141.22 78.5617 136.914 81.5131C133.688 83.7215 130.84 80.7237 130.84 80.7237C130.84 80.7237 129.051 77.086 129.246 70.8376C129.246 70.8376 135.904 72.1275 138.72 75.3678Z" fill="#E9E7FC"/>
<path fill-rule="evenodd" clip-rule="evenodd" d="M133.867 76.2736C134.564 76.3621 135.052 77.0079 134.964 77.7057C134.87 78.4035 134.231 78.893 133.529 78.8045C132.832 78.7107 132.344 78.0702 132.432 77.3672C132.526 76.6694 133.17 76.1799 133.867 76.2736Z" fill="white"/>
<path fill-rule="evenodd" clip-rule="evenodd" d="M133.784 76.906C134.133 76.9529 134.377 77.2756 134.33 77.6243C134.284 77.9731 133.966 78.2177 133.612 78.1709C133.263 78.124 133.019 77.8065 133.066 77.4578C133.112 77.1038 133.435 76.8592 133.784 76.906Z" fill="url(#paint16_linear_0_134)"/>
<path fill-rule="evenodd" clip-rule="evenodd" d="M129.55 70.8376L131.256 73.7094L131.784 72.9953L129.55 70.8376Z" fill="url(#paint17_linear_0_134)"/>
<path fill-rule="evenodd" clip-rule="evenodd" d="M100.513 75.4408C100.513 75.4408 107.607 72.4466 111.043 76.3687C111.043 76.3687 105.484 77.8984 104.583 78.9717C103.686 80.045 100.513 75.4408 100.513 75.4408Z" fill="url(#paint18_linear_0_134)"/>
<path fill-rule="evenodd" clip-rule="evenodd" d="M97.9601 84.7964C97.9601 84.7964 96.1566 87.6033 96.3391 92.5356C96.3391 92.5356 90.5315 87.4822 93.2689 83.5949C94.6323 81.6563 97.9601 84.7964 97.9601 84.7964Z" fill="url(#paint19_linear_0_134)"/>
<path fill-rule="evenodd" clip-rule="evenodd" d="M112.77 90.698C112.77 90.698 115.497 88.9113 119.997 90.9863C121.796 91.8153 124.444 94.2456 124.444 94.2456C124.444 94.2456 120.443 95.3166 116.216 94.1632C116.216 94.1632 117.448 99.482 116.756 102.746C116.756 102.746 111.847 98.3596 111.689 93.4938C111.569 89.8021 112.77 90.698 112.77 90.698Z" fill="url(#paint20_linear_0_134)"/>
<path fill-rule="evenodd" clip-rule="evenodd" d="M116.148 94.1311C116.148 94.1311 109.322 70.5563 85.1966 69.8803C85.1966 69.8803 87.559 88.9662 116.148 94.1311Z" fill="#A5BCDA"/>
<path fill-rule="evenodd" clip-rule="evenodd" d="M116.148 94.131C116.148 94.131 93.1735 80.5248 85.1966 69.8803C85.1966 69.8803 85.9124 79.2452 97.7654 87.475C107.481 94.2136 116.148 94.131 116.148 94.131Z" fill="url(#paint21_linear_0_134)"/>
<path fill-rule="evenodd" clip-rule="evenodd" d="M89.6186 79.9039C89.6186 79.9039 92.8692 82.6103 96.0741 78.2221C98.4829 74.9309 95.4453 71.8623 95.4453 71.8623C95.4453 71.8623 91.713 69.8803 85.1966 69.8803C85.1966 69.8803 86.3325 76.8611 89.6186 79.9039Z" fill="#E9E7FC"/>
<path fill-rule="evenodd" clip-rule="evenodd" d="M90.629 74.6531C90.7064 75.4433 91.4137 76.018 92.1984 75.9351C92.9886 75.8577 93.5632 75.1504 93.4859 74.3657C93.403 73.5755 92.7012 73.0008 91.911 73.0782C91.1208 73.1611 90.5461 73.8629 90.629 74.6531Z" fill="white"/>
<path fill-rule="evenodd" clip-rule="evenodd" d="M91.5815 74.7329C91.6158 75.081 91.9297 75.3361 92.2779 75.3017C92.631 75.2674 92.886 74.9535 92.8516 74.6053C92.8124 74.2523 92.5034 73.9972 92.1504 74.0316C91.8022 74.0708 91.5472 74.3798 91.5815 74.7329Z" fill="url(#paint22_linear_0_134)"/>
<path fill-rule="evenodd" clip-rule="evenodd" d="M85.1966 69.8803L88.0684 71.8686L87.3222 72.433L85.1966 69.8803Z" fill="url(#paint23_linear_0_134)"/>
<path fill-rule="evenodd" clip-rule="evenodd" d="M13.4017 3.87905C13.4017 3.87905 17.2167 -1.1661 21.3789 0.251032C21.3789 0.251032 18.0338 3.62075 17.8499 4.75774C17.6661 5.89472 13.4017 3.87905 13.4017 3.87905Z" fill="url(#paint24_linear_0_134)"/>
<path fill-rule="evenodd" clip-rule="evenodd" d="M15.3176 12.0359C15.3176 12.0359 15.276 14.7436 17.5498 18.188C17.5498 18.188 11.2643 16.8528 11.4932 13.0107C11.6077 11.0988 15.3176 12.0359 15.3176 12.0359Z" fill="url(#paint25_linear_0_134)"/>
<path fill-rule="evenodd" clip-rule="evenodd" d="M28.8414 9.82725C28.8414 9.82725 30.0247 7.40097 34.0867 7.04047C35.7104 6.89648 38.6097 7.55782 38.6097 7.55782C38.6097 7.55782 36.2227 9.99387 32.7395 10.9154C32.7395 10.9154 35.8539 14.2576 36.74 16.9117C36.74 16.9117 31.4128 15.7644 29.2512 12.3055C27.6121 9.67657 28.8414 9.82725 28.8414 9.82725Z" fill="url(#paint26_linear_0_134)"/>
<path fill-rule="evenodd" clip-rule="evenodd" d="M32.8661 10.8965C32.8661 10.8965 17.9241 -3.04557 -7.62939e-06 6.57772C-7.62939e-06 6.57772 9.78617 19.1901 32.8661 10.8965Z" fill="#A5BCDA"/>
<path fill-rule="evenodd" clip-rule="evenodd" d="M32.8661 10.8704C32.8661 10.8704 10.327 10.7951 -7.62939e-06 6.38177C-7.62939e-06 6.38177 4.48103 13.0067 16.621 13.9391C26.5669 14.7035 32.8661 10.8704 32.8661 10.8704Z" fill="url(#paint27_linear_0_134)"/>
<path fill-rule="evenodd" clip-rule="evenodd" d="M7.43001 11.7846C7.43001 11.7846 10.9454 12.3413 11.4571 7.81261C11.846 4.41685 8.33572 3.50998 8.33572 3.50998C8.33572 3.50998 4.77425 3.68069 3.43323e-05 6.46538C3.43323e-05 6.46538 3.75084 11.0018 7.43001 11.7846Z" fill="#E9E7FC"/>
<path fill-rule="evenodd" clip-rule="evenodd" d="M5.9568 7.51736C6.31975 8.01584 7.0201 8.12627 7.51597 7.76379C8.01695 7.40079 8.1243 6.7024 7.76646 6.20392C7.40351 5.70493 6.70316 5.5945 6.20218 5.95698C5.70631 6.31998 5.59385 7.01836 5.9568 7.51736Z" fill="white"/>
<path fill-rule="evenodd" clip-rule="evenodd" d="M6.47126 7.39512C6.62887 7.68029 6.92657 7.7434 7.14109 7.53595C7.35561 7.32909 7.40377 6.92998 7.24616 6.64423C7.09293 6.35965 6.79085 6.29654 6.58071 6.50399C6.36619 6.71085 6.31803 7.10996 6.47126 7.39512Z" fill="url(#paint28_linear_0_134)"/>
<path fill-rule="evenodd" clip-rule="evenodd" d="M7.15256e-07 6.38177L2.8718 6.59337L2.57154 7.33904L7.15256e-07 6.38177Z" fill="url(#paint29_linear_0_134)"/>
<path fill-rule="evenodd" clip-rule="evenodd" d="M175.18 87.2417C175.18 87.2417 180.404 84.6054 183.157 87.5408C183.157 87.5408 179.025 88.9654 178.393 89.8424C177.762 90.7144 175.18 87.2417 175.18 87.2417Z" fill="url(#paint30_linear_0_134)"/>
<path fill-rule="evenodd" clip-rule="evenodd" d="M173.265 94.7792C173.265 94.7792 172.094 97.0219 172.42 100.832C172.42 100.832 168.076 97.1428 169.87 94.0283C170.765 92.4811 173.265 94.7792 173.265 94.7792Z" fill="url(#paint31_linear_0_134)"/>
<path fill-rule="evenodd" clip-rule="evenodd" d="M185.192 98.6463C185.192 98.6463 187.213 97.1482 190.761 98.5791C192.184 99.1525 194.325 100.93 194.325 100.93C194.325 100.93 191.287 101.927 187.984 101.203C187.984 101.203 189.157 105.29 188.761 107.852C188.761 107.852 184.801 104.639 184.473 100.868C184.228 98.0006 185.192 98.6463 185.192 98.6463Z" fill="url(#paint32_linear_0_134)"/>
<path fill-rule="evenodd" clip-rule="evenodd" d="M187.943 101.151C187.943 101.151 181.631 83.1297 162.735 83.6106C162.735 83.6106 165.372 98.3327 187.943 101.151Z" fill="#A5BCDA"/>
<path fill-rule="evenodd" clip-rule="evenodd" d="M187.943 101.142C187.943 101.142 169.414 91.5336 162.735 83.6011C162.735 83.6011 163.685 90.8459 173.295 96.7358C181.171 101.566 187.943 101.142 187.943 101.142Z" fill="url(#paint33_linear_0_134)"/>
<path fill-rule="evenodd" clip-rule="evenodd" d="M166.646 91.3464C166.646 91.3464 169.326 93.3406 171.679 89.7416C173.449 87.0475 170.919 84.7586 170.919 84.7586C170.919 84.7586 167.888 83.359 162.735 83.6379C162.735 83.6379 163.925 89.0891 166.646 91.3464Z" fill="#E9E7FC"/>
<path fill-rule="evenodd" clip-rule="evenodd" d="M167.533 87.1258C167.613 87.7343 168.103 88.1491 168.625 88.0551C169.148 87.961 169.509 87.3913 169.423 86.7773C169.343 86.1689 168.853 85.754 168.331 85.848C167.808 85.9421 167.452 86.5118 167.533 87.1258Z" fill="white"/>
<path fill-rule="evenodd" clip-rule="evenodd" d="M167.846 87.0251C167.888 87.2863 168.134 87.4667 168.39 87.4239C168.655 87.3859 168.83 87.1391 168.793 86.878C168.75 86.6169 168.508 86.4365 168.248 86.4792C167.988 86.5172 167.808 86.764 167.846 87.0251Z" fill="url(#paint34_linear_0_134)"/>
<path fill-rule="evenodd" clip-rule="evenodd" d="M162.735 83.6011L165.288 85.0396L164.674 85.5157L162.735 83.6011Z" fill="url(#paint35_linear_0_134)"/>
<path fill-rule="evenodd" clip-rule="evenodd" d="M181.88 113.868C181.88 113.868 186.365 109.827 189.858 112.007C189.858 112.007 186.144 114.549 185.743 115.592C185.348 116.641 181.88 113.868 181.88 113.868Z" fill="url(#paint36_linear_0_134)"/>
<path fill-rule="evenodd" clip-rule="evenodd" d="M182.089 121.291C182.089 121.291 181.505 123.878 182.838 127.635C182.838 127.635 177.511 125.111 178.491 121.47C178.978 119.658 182.089 121.291 182.089 121.291Z" fill="url(#paint37_linear_0_134)"/>
<path fill-rule="evenodd" clip-rule="evenodd" d="M194.526 122.138C194.526 122.138 196.086 120.23 199.865 120.686C201.378 120.871 203.897 122.003 203.897 122.003C203.897 122.003 201.238 123.69 197.879 123.835C197.879 123.835 200.062 127.365 200.352 129.869C200.352 129.869 195.708 127.846 194.417 124.391C193.432 121.767 194.526 122.138 194.526 122.138Z" fill="url(#paint38_linear_0_134)"/>
<path fill-rule="evenodd" clip-rule="evenodd" d="M197.835 123.663C197.835 123.663 187.143 108.134 169.117 113.414C169.117 113.414 175.43 126.744 197.835 123.663Z" fill="#A5BCDA"/>
<path fill-rule="evenodd" clip-rule="evenodd" d="M197.835 123.93C197.835 123.93 177.565 119.484 169.117 113.595C169.117 113.595 171.889 120.295 182.631 123.473C191.434 126.081 197.835 123.93 197.835 123.93Z" fill="url(#paint39_linear_0_134)"/>
<path fill-rule="evenodd" clip-rule="evenodd" d="M174.744 119.809C174.744 119.809 177.786 121.016 179.121 116.968C180.122 113.935 177.156 112.41 177.156 112.41C177.156 112.41 173.931 111.859 169.117 113.467C169.117 113.467 171.6 118.362 174.744 119.809Z" fill="#E9E7FC"/>
<path fill-rule="evenodd" clip-rule="evenodd" d="M174.318 115.578C174.566 116.062 175.224 116.28 175.788 116.066C176.352 115.853 176.612 115.288 176.358 114.804C176.109 114.32 175.451 114.102 174.887 114.316C174.323 114.529 174.069 115.094 174.318 115.578Z" fill="white"/>
<path fill-rule="evenodd" clip-rule="evenodd" d="M174.903 115.45C175.007 115.773 175.292 115.918 175.533 115.773C175.775 115.633 175.884 115.254 175.775 114.932C175.671 114.609 175.386 114.464 175.145 114.609C174.903 114.748 174.794 115.128 174.903 115.45Z" fill="url(#paint40_linear_0_134)"/>
<path fill-rule="evenodd" clip-rule="evenodd" d="M169.117 113.595L171.67 114.311L171.258 114.872L169.117 113.595Z" fill="url(#paint41_linear_0_134)"/>
<path fill-rule="evenodd" clip-rule="evenodd" d="M61.265 6.97309C61.265 6.97309 65.7493 2.93202 69.2422 5.11338C69.2422 5.11338 65.5233 7.65359 65.1277 8.6987C64.7322 9.74432 61.265 6.97309 61.265 6.97309Z" fill="url(#paint42_linear_0_134)"/>
<path fill-rule="evenodd" clip-rule="evenodd" d="M61.4738 14.3951C61.4738 14.3951 60.8894 16.9852 62.2222 20.7407C62.2222 20.7407 56.896 18.2176 57.8752 14.5759C58.3621 12.7638 61.4738 14.3951 61.4738 14.3951Z" fill="url(#paint43_linear_0_134)"/>
<path fill-rule="evenodd" clip-rule="evenodd" d="M73.9104 15.2417C73.9104 15.2417 75.4706 13.3347 79.2494 13.7914C80.7629 13.9747 83.2821 15.1085 83.2821 15.1085C83.2821 15.1085 80.623 16.7957 77.2589 16.9419C77.2589 16.9419 79.4463 20.4734 79.7314 22.9744C79.7314 22.9744 75.0922 20.9512 73.8015 17.4988C72.8167 14.8746 73.9104 15.2417 73.9104 15.2417Z" fill="url(#paint44_linear_0_134)"/>
<path fill-rule="evenodd" clip-rule="evenodd" d="M77.2194 16.7692C77.2194 16.7692 66.531 1.24074 48.5014 6.51889C48.5014 6.51889 54.8159 19.8476 77.2194 16.7692Z" fill="#A5BCDA"/>
<path fill-rule="evenodd" clip-rule="evenodd" d="M77.2194 17.0114C77.2194 17.0114 56.9515 12.4396 48.5014 6.38177C48.5014 6.38177 51.2736 13.2732 62.0185 16.5431C70.8228 19.2229 77.2194 17.0114 77.2194 17.0114Z" fill="url(#paint45_linear_0_134)"/>
<path fill-rule="evenodd" clip-rule="evenodd" d="M54.3042 12.9145C54.3042 12.9145 57.4413 14.1201 58.8187 10.0747C59.8504 7.04099 56.7919 5.51502 56.7919 5.51502C56.7919 5.51502 53.4663 4.96631 48.5014 6.57082C48.5014 6.57082 51.0624 11.4686 54.3042 12.9145Z" fill="#E9E7FC"/>
<path fill-rule="evenodd" clip-rule="evenodd" d="M53.7024 8.68299C53.9515 9.16633 54.6102 9.38547 55.1748 9.17155C55.7394 8.9581 55.9941 8.39318 55.745 7.90984C55.4959 7.42603 54.8372 7.20736 54.2726 7.42081C53.708 7.63473 53.4533 8.19965 53.7024 8.68299Z" fill="white"/>
<path fill-rule="evenodd" clip-rule="evenodd" d="M54.2874 8.5543C54.3918 8.87619 54.6765 9.02227 54.9186 8.87998C55.1559 8.73706 55.2698 8.36079 55.1606 8.03827C55.0562 7.71639 54.7715 7.57031 54.5294 7.71259C54.2874 7.85488 54.1782 8.23178 54.2874 8.5543Z" fill="url(#paint46_linear_0_134)"/>
<path fill-rule="evenodd" clip-rule="evenodd" d="M48.5014 6.38177L51.3732 7.27553L50.91 7.97722L48.5014 6.38177Z" fill="url(#paint47_linear_0_134)"/>
<path fill-rule="evenodd" clip-rule="evenodd" d="M102.427 5.2974C102.427 5.2974 107.833 2.95655 110.405 6.13635C110.405 6.13635 106.177 7.3169 105.482 8.16934C104.793 9.02231 102.427 5.2974 102.427 5.2974Z" fill="url(#paint48_linear_0_134)"/>
<path fill-rule="evenodd" clip-rule="evenodd" d="M100.194 12.6606C100.194 12.6606 98.7898 14.8888 98.8848 18.8262C98.8848 18.8262 94.504 14.7418 96.6258 11.6608C97.6814 10.1281 100.194 12.6606 100.194 12.6606Z" fill="url(#paint49_linear_0_134)"/>
<path fill-rule="evenodd" clip-rule="evenodd" d="M111.591 17.4389C111.591 17.4389 113.726 16.08 117.197 17.7256C118.586 18.3842 120.615 20.2872 120.615 20.2872C120.615 20.2872 117.501 21.0815 114.234 20.1552C114.234 20.1552 115.141 24.2813 114.575 26.8034C114.575 26.8034 110.81 23.3622 110.726 19.5962C110.669 16.7345 111.591 17.4389 111.591 17.4389Z" fill="url(#paint50_linear_0_134)"/>
<path fill-rule="evenodd" clip-rule="evenodd" d="M114.234 20.1026C114.234 20.1026 109.118 1.70219 90.302 0.957275C90.302 0.957275 91.9779 15.8255 114.234 20.1026Z" fill="#A5BCDA"/>
<path fill-rule="evenodd" clip-rule="evenodd" d="M114.234 20.1026C114.234 20.1026 96.4301 9.31065 90.302 0.957275C90.302 0.957275 90.7801 8.24915 99.9569 14.7558C107.473 20.0881 114.234 20.1026 114.234 20.1026Z" fill="url(#paint51_linear_0_134)"/>
<path fill-rule="evenodd" clip-rule="evenodd" d="M93.6996 8.60547C93.6996 8.60547 96.2324 10.6886 98.8013 7.38544C100.727 4.90844 98.3585 2.55343 98.3585 2.55343C98.3585 2.55343 95.4396 1.0165 90.302 0.957275C90.302 0.957275 91.136 6.26768 93.6996 8.60547Z" fill="#E9E7FC"/>
<path fill-rule="evenodd" clip-rule="evenodd" d="M94.7732 4.72669C94.8206 5.34106 95.2854 5.79437 95.8119 5.73902C96.3384 5.68367 96.7273 5.14126 96.6799 4.52688C96.6324 3.91251 96.1676 3.45921 95.6411 3.51455C95.1147 3.5699 94.7257 4.11232 94.7732 4.72669Z" fill="white"/>
<path fill-rule="evenodd" clip-rule="evenodd" d="M95.0909 4.66974C95.1227 4.93311 95.4277 5.12719 95.7836 5.10346C96.1395 5.07974 96.3937 4.84722 96.3619 4.58385C96.3302 4.32095 96.0188 4.1264 95.6692 4.15012C95.3197 4.17385 95.0591 4.40637 95.0909 4.66974Z" fill="url(#paint52_linear_0_134)"/>
<path fill-rule="evenodd" clip-rule="evenodd" d="M90.302 0.957275L92.5356 2.45756L91.9462 2.87181L90.302 0.957275Z" fill="url(#paint53_linear_0_134)"/>
<path fill-rule="evenodd" clip-rule="evenodd" d="M64.4559 31.5096C64.4559 31.5096 71.7646 28.6942 74.9858 33.1516C74.9858 33.1516 69.3059 34.4758 68.3359 35.5826C67.371 36.6901 64.4559 31.5096 64.4559 31.5096Z" fill="url(#paint54_linear_0_134)"/>
<path fill-rule="evenodd" clip-rule="evenodd" d="M61.265 40.6772C61.265 40.6772 59.318 43.4509 59.2013 48.5014C59.2013 48.5014 53.7741 43.0146 56.7131 39.1896C58.1721 37.2864 61.265 40.6772 61.265 40.6772Z" fill="url(#paint55_linear_0_134)"/>
<path fill-rule="evenodd" clip-rule="evenodd" d="M75.8874 47.4587C75.8874 47.4587 78.6638 45.8356 82.9466 48.1522C84.6586 49.0792 87.1111 51.6425 87.1111 51.6425C87.1111 51.6425 83.1368 52.4838 79.0597 51.1039C79.0597 51.1039 79.9645 56.4609 79.1008 59.6695C79.1008 59.6695 74.5507 55.0281 74.6689 50.1826C74.7614 46.5004 75.8874 47.4587 75.8874 47.4587Z" fill="url(#paint56_linear_0_134)"/>
<path fill-rule="evenodd" clip-rule="evenodd" d="M79.1339 51.0541C79.1339 51.0541 73.6286 27.2675 49.4587 25.208C49.4587 25.208 50.7386 44.2844 79.1339 51.0541Z" fill="#A5BCDA"/>
<path fill-rule="evenodd" clip-rule="evenodd" d="M79.1339 51.0541C79.1339 51.0541 56.8557 36.2311 49.4587 25.208C49.4587 25.208 49.6438 34.5434 61.0707 43.3885C70.4364 50.6372 79.1339 51.0541 79.1339 51.0541Z" fill="url(#paint57_linear_0_134)"/>
<path fill-rule="evenodd" clip-rule="evenodd" d="M53.3116 35.4102C53.3116 35.4102 56.4081 38.2847 59.86 34.1159C62.454 30.9904 59.5859 27.7704 59.5859 27.7704C59.5859 27.7704 55.9716 25.5885 49.4587 25.208C49.4587 25.208 50.1998 32.2019 53.3116 35.4102Z" fill="#E9E7FC"/>
<path fill-rule="evenodd" clip-rule="evenodd" d="M54.5653 30.3688C54.5984 31.0736 55.2716 31.6194 56.0606 31.5885C56.8552 31.5576 57.4677 30.9617 57.4346 30.2574C57.3959 29.5536 56.7283 29.0078 55.9393 29.0383C55.1447 29.0692 54.5322 29.665 54.5653 30.3688Z" fill="white"/>
<path fill-rule="evenodd" clip-rule="evenodd" d="M55.522 30.3413C55.5367 30.6937 55.8358 30.9666 56.1841 30.9509C56.5372 30.9357 56.8119 30.6378 56.7972 30.2859C56.7825 29.9335 56.4833 29.6606 56.1301 29.6758C55.777 29.6915 55.5072 29.9894 55.522 30.3413Z" fill="url(#paint58_linear_0_134)"/>
<path fill-rule="evenodd" clip-rule="evenodd" d="M49.4587 25.208L52.3305 27.5188L51.5217 28.0798L49.4587 25.208Z" fill="url(#paint59_linear_0_134)"/>
<path fill-rule="evenodd" clip-rule="evenodd" d="M201.983 88.1619C201.983 88.1619 206.465 84.4097 209.96 86.4343C209.96 86.4343 206.244 88.7946 205.848 89.7631C205.447 90.7364 201.983 88.1619 201.983 88.1619Z" fill="url(#paint60_linear_0_134)"/>
<path fill-rule="evenodd" clip-rule="evenodd" d="M202.191 95.764C202.191 95.764 201.611 98.3512 202.94 102.108C202.94 102.108 197.613 99.5843 198.593 95.9432C199.081 94.1305 202.191 95.764 202.191 95.764Z" fill="url(#paint61_linear_0_134)"/>
<path fill-rule="evenodd" clip-rule="evenodd" d="M214.932 96.3441C214.932 96.3441 216.437 94.3706 220.098 94.842C221.563 95.0336 224 96.2043 224 96.2043C224 96.2043 221.427 97.9499 218.172 98.1001C218.172 98.1001 220.289 101.752 220.564 104.342C220.564 104.342 216.076 102.249 214.822 98.6751C213.874 95.9608 214.932 96.3441 214.932 96.3441Z" fill="url(#paint62_linear_0_134)"/>
<path fill-rule="evenodd" clip-rule="evenodd" d="M218.256 98.1362C218.256 98.1362 207.446 82.6071 189.219 87.887C189.219 87.887 195.603 101.217 218.256 98.1362Z" fill="#A5BCDA"/>
<path fill-rule="evenodd" clip-rule="evenodd" d="M218.256 98.0836C218.256 98.0836 197.767 93.6378 189.219 87.7493C189.219 87.7493 192.022 94.4489 202.884 97.6267C211.79 100.235 218.256 98.0836 218.256 98.0836Z" fill="url(#paint63_linear_0_134)"/>
<path fill-rule="evenodd" clip-rule="evenodd" d="M195.027 94.2817C195.027 94.2817 198.158 95.4887 199.535 91.441C200.572 88.4077 197.509 86.8833 197.509 86.8833C197.509 86.8833 194.184 86.3318 189.219 87.9395C189.219 87.9395 191.785 92.8353 195.027 94.2817Z" fill="#E9E7FC"/>
<path fill-rule="evenodd" clip-rule="evenodd" d="M194.726 90.0505C194.939 90.5344 195.504 90.7527 195.988 90.5392C196.472 90.3257 196.69 89.7611 196.477 89.2771C196.263 88.7932 195.698 88.5749 195.214 88.7884C194.731 89.0019 194.512 89.5665 194.726 90.0505Z" fill="white"/>
<path fill-rule="evenodd" clip-rule="evenodd" d="M195.018 89.9182C195.157 90.2403 195.536 90.3919 195.858 90.2467C196.18 90.1014 196.326 89.7288 196.187 89.4067C196.041 89.0846 195.663 88.9393 195.34 89.0783C195.025 89.2235 194.873 89.6025 195.018 89.9182Z" fill="url(#paint64_linear_0_134)"/>
<path fill-rule="evenodd" clip-rule="evenodd" d="M189.219 87.7493L192.091 88.6434L191.633 89.3447L189.219 87.7493Z" fill="url(#paint65_linear_0_134)"/>
<path fill-rule="evenodd" clip-rule="evenodd" d="M138.165 20.3144C138.165 20.3144 142.074 16.001 145.823 17.5772C145.823 17.5772 142.475 20.4026 142.218 21.4216C141.961 22.4406 138.165 20.3144 138.165 20.3144Z" fill="url(#paint66_linear_0_134)"/>
<path fill-rule="evenodd" clip-rule="evenodd" d="M139.483 27.8059C139.483 27.8059 139.244 30.3806 141.037 33.8234C141.037 33.8234 135.468 32.1017 135.963 28.4601C136.212 26.6483 139.483 27.8059 139.483 27.8059Z" fill="url(#paint67_linear_0_134)"/>
<path fill-rule="evenodd" clip-rule="evenodd" d="M152.01 26.7463C152.01 26.7463 153.271 24.6053 157.024 24.57C158.53 24.5561 161.14 25.3739 161.14 25.3739C161.14 25.3739 158.775 27.4364 155.513 28.029C155.513 28.029 158.127 31.3235 158.745 33.8234C158.745 33.8234 153.94 32.3827 152.209 29.0508C150.891 26.5187 152.01 26.7463 152.01 26.7463Z" fill="url(#paint68_linear_0_134)"/>
<path fill-rule="evenodd" clip-rule="evenodd" d="M155.396 28.0364C155.396 28.0364 142.784 14.1552 125.721 21.7216C125.721 21.7216 133.729 34.0125 155.396 28.0364Z" fill="#A5BCDA"/>
<path fill-rule="evenodd" clip-rule="evenodd" d="M155.396 28.0555C155.396 28.0555 134.832 26.3689 125.721 21.698C125.721 21.698 129.345 27.9181 140.354 29.6205C149.378 31.0159 155.396 28.0555 155.396 28.0555Z" fill="url(#paint69_linear_0_134)"/>
<path fill-rule="evenodd" clip-rule="evenodd" d="M132.178 27.0658C132.178 27.0658 135.371 27.8386 136.174 23.6805C136.778 20.5624 133.611 19.4651 133.611 19.4651C133.611 19.4651 130.321 19.3625 125.721 21.5927C125.721 21.5927 128.847 26.0711 132.178 27.0658Z" fill="#E9E7FC"/>
<path fill-rule="evenodd" clip-rule="evenodd" d="M131.289 23.1555C131.564 23.6061 132.152 23.7475 132.602 23.4714C133.053 23.1948 133.195 22.6057 132.92 22.155C132.64 21.7044 132.052 21.563 131.602 21.8391C131.151 22.1152 131.009 22.7048 131.289 23.1555Z" fill="white"/>
<path fill-rule="evenodd" clip-rule="evenodd" d="M131.538 22.989C131.675 23.2889 131.968 23.3838 132.191 23.199C132.418 23.0149 132.489 22.622 132.352 22.3221C132.215 22.0209 131.916 21.9272 131.694 22.1114C131.467 22.2955 131.396 22.6878 131.538 22.989Z" fill="url(#paint70_linear_0_134)"/>
<path fill-rule="evenodd" clip-rule="evenodd" d="M125.721 21.698L128.273 22.0659L127.954 22.6553L125.721 21.698Z" fill="url(#paint71_linear_0_134)"/>
<defs>
<linearGradient id="paint0_linear_0_134" x1="146.621" y1="44.6724" x2="146.621" y2="49.1396" gradientUnits="userSpaceOnUse">
<stop stop-color="#9087CA"/>
<stop offset="1" stop-color="#6A629A"/>
</linearGradient>
<linearGradient id="paint1_linear_0_134" x1="136.729" y1="52.9687" x2="136.729" y2="61.9031" gradientUnits="userSpaceOnUse">
<stop stop-color="#9087CA"/>
<stop offset="1" stop-color="#6A629A"/>
</linearGradient>
<linearGradient id="paint2_linear_0_134" x1="158.427" y1="59.3504" x2="158.427" y2="71.4758" gradientUnits="userSpaceOnUse">
<stop stop-color="#9087CA"/>
<stop offset="1" stop-color="#6A629A"/>
</linearGradient>
<linearGradient id="paint3_linear_0_134" x1="141.835" y1="40.5242" x2="141.835" y2="63.1795" gradientUnits="userSpaceOnUse">
<stop stop-color="#7A9ADA"/>
<stop offset="1" stop-color="#6A85BA"/>
</linearGradient>
<linearGradient id="paint4_linear_0_134" x1="133.698" y1="44.3533" x2="133.698" y2="45.6296" gradientUnits="userSpaceOnUse">
<stop stop-color="#7A9ADA"/>
<stop offset="1" stop-color="#6A85BA"/>
</linearGradient>
<linearGradient id="paint5_linear_0_134" x1="128.433" y1="40.5242" x2="128.433" y2="43.0769" gradientUnits="userSpaceOnUse">
<stop stop-color="#9087CA"/>
<stop offset="1" stop-color="#6A629A"/>
</linearGradient>
<linearGradient id="paint6_linear_0_134" x1="96.2052" y1="44.0342" x2="96.2052" y2="53.9259" gradientUnits="userSpaceOnUse">
<stop stop-color="#9087CA"/>
<stop offset="1" stop-color="#6A629A"/>
</linearGradient>
<linearGradient id="paint7_linear_0_134" x1="106.735" y1="37.0143" x2="106.735" y2="41.8006" gradientUnits="userSpaceOnUse">
<stop stop-color="#9087CA"/>
<stop offset="1" stop-color="#6A629A"/>
</linearGradient>
<linearGradient id="paint8_linear_0_134" x1="114.234" y1="55.2023" x2="114.234" y2="67.0085" gradientUnits="userSpaceOnUse">
<stop stop-color="#9087CA"/>
<stop offset="1" stop-color="#6A629A"/>
</linearGradient>
<linearGradient id="paint9_linear_0_134" x1="101.311" y1="29.3561" x2="101.311" y2="59.3504" gradientUnits="userSpaceOnUse">
<stop stop-color="#7A9ADA"/>
<stop offset="1" stop-color="#6A85BA"/>
</linearGradient>
<linearGradient id="paint10_linear_0_134" x1="94.4501" y1="35.4188" x2="94.4501" y2="36.6951" gradientUnits="userSpaceOnUse">
<stop stop-color="#7A9ADA"/>
<stop offset="1" stop-color="#6A85BA"/>
</linearGradient>
<linearGradient id="paint11_linear_0_134" x1="91.5784" y1="29.3561" x2="91.5784" y2="32.2279" gradientUnits="userSpaceOnUse">
<stop stop-color="#9087CA"/>
<stop offset="1" stop-color="#6A629A"/>
</linearGradient>
<linearGradient id="paint12_linear_0_134" x1="135.293" y1="85.8347" x2="135.293" y2="95.7265" gradientUnits="userSpaceOnUse">
<stop stop-color="#9087CA"/>
<stop offset="1" stop-color="#6A629A"/>
</linearGradient>
<linearGradient id="paint13_linear_0_134" x1="145.983" y1="78.4957" x2="145.983" y2="83.2821" gradientUnits="userSpaceOnUse">
<stop stop-color="#9087CA"/>
<stop offset="1" stop-color="#6A629A"/>
</linearGradient>
<linearGradient id="paint14_linear_0_134" x1="153.322" y1="96.6837" x2="153.322" y2="108.49" gradientUnits="userSpaceOnUse">
<stop stop-color="#9087CA"/>
<stop offset="1" stop-color="#6A629A"/>
</linearGradient>
<linearGradient id="paint15_linear_0_134" x1="140.399" y1="70.8376" x2="140.399" y2="101.151" gradientUnits="userSpaceOnUse">
<stop stop-color="#7A9ADA"/>
<stop offset="1" stop-color="#6A85BA"/>
</linearGradient>
<linearGradient id="paint16_linear_0_134" x1="133.698" y1="76.9003" x2="133.698" y2="78.1766" gradientUnits="userSpaceOnUse">
<stop stop-color="#7A9ADA"/>
<stop offset="1" stop-color="#6A85BA"/>
</linearGradient>
<linearGradient id="paint17_linear_0_134" x1="130.667" y1="70.8376" x2="130.667" y2="73.7094" gradientUnits="userSpaceOnUse">
<stop stop-color="#9087CA"/>
<stop offset="1" stop-color="#6A629A"/>
</linearGradient>
<linearGradient id="paint18_linear_0_134" x1="105.778" y1="74.3476" x2="105.778" y2="79.1339" gradientUnits="userSpaceOnUse">
<stop stop-color="#9087CA"/>
<stop offset="1" stop-color="#6A629A"/>
</linearGradient>
<linearGradient id="paint19_linear_0_134" x1="95.2478" y1="82.963" x2="95.2478" y2="92.5356" gradientUnits="userSpaceOnUse">
<stop stop-color="#9087CA"/>
<stop offset="1" stop-color="#6A629A"/>
</linearGradient>
<linearGradient id="paint20_linear_0_134" x1="118.063" y1="89.9829" x2="118.063" y2="102.746" gradientUnits="userSpaceOnUse">
<stop stop-color="#9087CA"/>
<stop offset="1" stop-color="#6A629A"/>
</linearGradient>
<linearGradient id="paint21_linear_0_134" x1="100.672" y1="69.8803" x2="100.672" y2="94.1311" gradientUnits="userSpaceOnUse">
<stop stop-color="#7A9ADA"/>
<stop offset="1" stop-color="#6A85BA"/>
</linearGradient>
<linearGradient id="paint22_linear_0_134" x1="92.2166" y1="74.0285" x2="92.2166" y2="75.3048" gradientUnits="userSpaceOnUse">
<stop stop-color="#7A9ADA"/>
<stop offset="1" stop-color="#6A85BA"/>
</linearGradient>
<linearGradient id="paint23_linear_0_134" x1="86.6325" y1="69.8803" x2="86.6325" y2="72.433" gradientUnits="userSpaceOnUse">
<stop stop-color="#9087CA"/>
<stop offset="1" stop-color="#6A629A"/>
</linearGradient>
<linearGradient id="paint24_linear_0_134" x1="17.3903" y1="0" x2="17.3903" y2="5.10541" gradientUnits="userSpaceOnUse">
<stop stop-color="#9087CA"/>
<stop offset="1" stop-color="#6A629A"/>
</linearGradient>
<linearGradient id="paint25_linear_0_134" x1="14.5185" y1="11.8063" x2="14.5185" y2="18.188" gradientUnits="userSpaceOnUse">
<stop stop-color="#9087CA"/>
<stop offset="1" stop-color="#6A629A"/>
</linearGradient>
<linearGradient id="paint26_linear_0_134" x1="33.5043" y1="7.01996" x2="33.5043" y2="16.9117" gradientUnits="userSpaceOnUse">
<stop stop-color="#9087CA"/>
<stop offset="1" stop-color="#6A629A"/>
</linearGradient>
<linearGradient id="paint27_linear_0_134" x1="16.433" y1="6.38177" x2="16.433" y2="14.0399" gradientUnits="userSpaceOnUse">
<stop stop-color="#7A9ADA"/>
<stop offset="1" stop-color="#6A85BA"/>
</linearGradient>
<linearGradient id="paint28_linear_0_134" x1="6.86042" y1="6.38177" x2="6.86042" y2="7.65813" gradientUnits="userSpaceOnUse">
<stop stop-color="#7A9ADA"/>
<stop offset="1" stop-color="#6A85BA"/>
</linearGradient>
<linearGradient id="paint29_linear_0_134" x1="1.4359" y1="6.38177" x2="1.4359" y2="7.33904" gradientUnits="userSpaceOnUse">
<stop stop-color="#9087CA"/>
<stop offset="1" stop-color="#6A629A"/>
</linearGradient>
<linearGradient id="paint30_linear_0_134" x1="179.168" y1="86.1538" x2="179.168" y2="89.9829" gradientUnits="userSpaceOnUse">
<stop stop-color="#9087CA"/>
<stop offset="1" stop-color="#6A629A"/>
</linearGradient>
<linearGradient id="paint31_linear_0_134" x1="171.35" y1="93.4929" x2="171.35" y2="100.832" gradientUnits="userSpaceOnUse">
<stop stop-color="#9087CA"/>
<stop offset="1" stop-color="#6A629A"/>
</linearGradient>
<linearGradient id="paint32_linear_0_134" x1="189.379" y1="97.9601" x2="189.379" y2="107.852" gradientUnits="userSpaceOnUse">
<stop stop-color="#9087CA"/>
<stop offset="1" stop-color="#6A629A"/>
</linearGradient>
<linearGradient id="paint33_linear_0_134" x1="175.339" y1="83.6011" x2="175.339" y2="101.151" gradientUnits="userSpaceOnUse">
<stop stop-color="#7A9ADA"/>
<stop offset="1" stop-color="#6A85BA"/>
</linearGradient>
<linearGradient id="paint34_linear_0_134" x1="168.319" y1="86.4729" x2="168.319" y2="87.4302" gradientUnits="userSpaceOnUse">
<stop stop-color="#7A9ADA"/>
<stop offset="1" stop-color="#6A85BA"/>
</linearGradient>
<linearGradient id="paint35_linear_0_134" x1="164.011" y1="83.6011" x2="164.011" y2="85.5157" gradientUnits="userSpaceOnUse">
<stop stop-color="#9087CA"/>
<stop offset="1" stop-color="#6A629A"/>
</linearGradient>
<linearGradient id="paint36_linear_0_134" x1="185.869" y1="111.362" x2="185.869" y2="115.829" gradientUnits="userSpaceOnUse">
<stop stop-color="#9087CA"/>
<stop offset="1" stop-color="#6A629A"/>
</linearGradient>
<linearGradient id="paint37_linear_0_134" x1="180.604" y1="120.615" x2="180.604" y2="127.635" gradientUnits="userSpaceOnUse">
<stop stop-color="#9087CA"/>
<stop offset="1" stop-color="#6A629A"/>
</linearGradient>
<linearGradient id="paint38_linear_0_134" x1="198.952" y1="120.615" x2="198.952" y2="129.869" gradientUnits="userSpaceOnUse">
<stop stop-color="#9087CA"/>
<stop offset="1" stop-color="#6A629A"/>
</linearGradient>
<linearGradient id="paint39_linear_0_134" x1="183.476" y1="113.595" x2="183.476" y2="124.764" gradientUnits="userSpaceOnUse">
<stop stop-color="#7A9ADA"/>
<stop offset="1" stop-color="#6A85BA"/>
</linearGradient>
<linearGradient id="paint40_linear_0_134" x1="175.339" y1="114.553" x2="175.339" y2="115.829" gradientUnits="userSpaceOnUse">
<stop stop-color="#7A9ADA"/>
<stop offset="1" stop-color="#6A85BA"/>
</linearGradient>
<linearGradient id="paint41_linear_0_134" x1="170.393" y1="113.595" x2="170.393" y2="114.872" gradientUnits="userSpaceOnUse">
<stop stop-color="#9087CA"/>
<stop offset="1" stop-color="#6A629A"/>
</linearGradient>
<linearGradient id="paint42_linear_0_134" x1="65.2536" y1="4.46722" x2="65.2536" y2="8.93446" gradientUnits="userSpaceOnUse">
<stop stop-color="#9087CA"/>
<stop offset="1" stop-color="#6A629A"/>
</linearGradient>
<linearGradient id="paint43_linear_0_134" x1="59.9886" y1="13.7208" x2="59.9886" y2="20.7407" gradientUnits="userSpaceOnUse">
<stop stop-color="#9087CA"/>
<stop offset="1" stop-color="#6A629A"/>
</linearGradient>
<linearGradient id="paint44_linear_0_134" x1="78.3362" y1="13.7208" x2="78.3362" y2="22.9744" gradientUnits="userSpaceOnUse">
<stop stop-color="#9087CA"/>
<stop offset="1" stop-color="#6A629A"/>
</linearGradient>
<linearGradient id="paint45_linear_0_134" x1="62.8604" y1="6.38177" x2="62.8604" y2="17.869" gradientUnits="userSpaceOnUse">
<stop stop-color="#7A9ADA"/>
<stop offset="1" stop-color="#6A85BA"/>
</linearGradient>
<linearGradient id="paint46_linear_0_134" x1="54.7236" y1="7.65811" x2="54.7236" y2="8.93446" gradientUnits="userSpaceOnUse">
<stop stop-color="#7A9ADA"/>
<stop offset="1" stop-color="#6A85BA"/>
</linearGradient>
<linearGradient id="paint47_linear_0_134" x1="49.9373" y1="6.38177" x2="49.9373" y2="7.97722" gradientUnits="userSpaceOnUse">
<stop stop-color="#9087CA"/>
<stop offset="1" stop-color="#6A629A"/>
</linearGradient>
<linearGradient id="paint48_linear_0_134" x1="106.416" y1="4.46722" x2="106.416" y2="8.29628" gradientUnits="userSpaceOnUse">
<stop stop-color="#9087CA"/>
<stop offset="1" stop-color="#6A629A"/>
</linearGradient>
<linearGradient id="paint49_linear_0_134" x1="98.1197" y1="11.1681" x2="98.1197" y2="18.8262" gradientUnits="userSpaceOnUse">
<stop stop-color="#9087CA"/>
<stop offset="1" stop-color="#6A629A"/>
</linearGradient>
<linearGradient id="paint50_linear_0_134" x1="115.67" y1="16.9117" x2="115.67" y2="26.8034" gradientUnits="userSpaceOnUse">
<stop stop-color="#9087CA"/>
<stop offset="1" stop-color="#6A629A"/>
</linearGradient>
<linearGradient id="paint51_linear_0_134" x1="102.268" y1="0.957275" x2="102.268" y2="20.1026" gradientUnits="userSpaceOnUse">
<stop stop-color="#7A9ADA"/>
<stop offset="1" stop-color="#6A85BA"/>
</linearGradient>
<linearGradient id="paint52_linear_0_134" x1="95.7264" y1="4.14816" x2="95.7264" y2="5.10543" gradientUnits="userSpaceOnUse">
<stop stop-color="#7A9ADA"/>
<stop offset="1" stop-color="#6A85BA"/>
</linearGradient>
<linearGradient id="paint53_linear_0_134" x1="91.4188" y1="0.957275" x2="91.4188" y2="2.87181" gradientUnits="userSpaceOnUse">
<stop stop-color="#9087CA"/>
<stop offset="1" stop-color="#6A629A"/>
</linearGradient>
<linearGradient id="paint54_linear_0_134" x1="69.7208" y1="30.6325" x2="69.7208" y2="35.7379" gradientUnits="userSpaceOnUse">
<stop stop-color="#9087CA"/>
<stop offset="1" stop-color="#6A629A"/>
</linearGradient>
<linearGradient id="paint55_linear_0_134" x1="58.5527" y1="38.6097" x2="58.5527" y2="48.5014" gradientUnits="userSpaceOnUse">
<stop stop-color="#9087CA"/>
<stop offset="1" stop-color="#6A629A"/>
</linearGradient>
<linearGradient id="paint56_linear_0_134" x1="80.8889" y1="46.906" x2="80.8889" y2="59.6695" gradientUnits="userSpaceOnUse">
<stop stop-color="#9087CA"/>
<stop offset="1" stop-color="#6A629A"/>
</linearGradient>
<linearGradient id="paint57_linear_0_134" x1="64.2963" y1="25.208" x2="64.2963" y2="51.0541" gradientUnits="userSpaceOnUse">
<stop stop-color="#7A9ADA"/>
<stop offset="1" stop-color="#6A85BA"/>
</linearGradient>
<linearGradient id="paint58_linear_0_134" x1="56.1596" y1="29.6752" x2="56.1596" y2="30.9516" gradientUnits="userSpaceOnUse">
<stop stop-color="#7A9ADA"/>
<stop offset="1" stop-color="#6A85BA"/>
</linearGradient>
<linearGradient id="paint59_linear_0_134" x1="50.8946" y1="25.208" x2="50.8946" y2="28.0798" gradientUnits="userSpaceOnUse">
<stop stop-color="#9087CA"/>
<stop offset="1" stop-color="#6A629A"/>
</linearGradient>
<linearGradient id="paint60_linear_0_134" x1="205.971" y1="85.8347" x2="205.971" y2="89.9829" gradientUnits="userSpaceOnUse">
<stop stop-color="#9087CA"/>
<stop offset="1" stop-color="#6A629A"/>
</linearGradient>
<linearGradient id="paint61_linear_0_134" x1="200.707" y1="95.0883" x2="200.707" y2="102.108" gradientUnits="userSpaceOnUse">
<stop stop-color="#9087CA"/>
<stop offset="1" stop-color="#6A629A"/>
</linearGradient>
<linearGradient id="paint62_linear_0_134" x1="219.214" y1="94.7692" x2="219.214" y2="104.342" gradientUnits="userSpaceOnUse">
<stop stop-color="#9087CA"/>
<stop offset="1" stop-color="#6A629A"/>
</linearGradient>
<linearGradient id="paint63_linear_0_134" x1="203.738" y1="87.7493" x2="203.738" y2="98.9174" gradientUnits="userSpaceOnUse">
<stop stop-color="#7A9ADA"/>
<stop offset="1" stop-color="#6A85BA"/>
</linearGradient>
<linearGradient id="paint64_linear_0_134" x1="195.601" y1="89.0256" x2="195.601" y2="90.302" gradientUnits="userSpaceOnUse">
<stop stop-color="#7A9ADA"/>
<stop offset="1" stop-color="#6A85BA"/>
</linearGradient>
<linearGradient id="paint65_linear_0_134" x1="190.655" y1="87.7493" x2="190.655" y2="89.3447" gradientUnits="userSpaceOnUse">
<stop stop-color="#9087CA"/>
<stop offset="1" stop-color="#6A629A"/>
</linearGradient>
<linearGradient id="paint66_linear_0_134" x1="141.994" y1="17.2308" x2="141.994" y2="21.698" gradientUnits="userSpaceOnUse">
<stop stop-color="#9087CA"/>
<stop offset="1" stop-color="#6A629A"/>
</linearGradient>
<linearGradient id="paint67_linear_0_134" x1="138.484" y1="27.4416" x2="138.484" y2="33.8234" gradientUnits="userSpaceOnUse">
<stop stop-color="#9087CA"/>
<stop offset="1" stop-color="#6A629A"/>
</linearGradient>
<linearGradient id="paint68_linear_0_134" x1="156.353" y1="24.5698" x2="156.353" y2="33.8234" gradientUnits="userSpaceOnUse">
<stop stop-color="#9087CA"/>
<stop offset="1" stop-color="#6A629A"/>
</linearGradient>
<linearGradient id="paint69_linear_0_134" x1="140.558" y1="21.698" x2="140.558" y2="29.9943" gradientUnits="userSpaceOnUse">
<stop stop-color="#7A9ADA"/>
<stop offset="1" stop-color="#6A85BA"/>
</linearGradient>
<linearGradient id="paint70_linear_0_134" x1="131.943" y1="22.0171" x2="131.943" y2="23.2934" gradientUnits="userSpaceOnUse">
<stop stop-color="#7A9ADA"/>
<stop offset="1" stop-color="#6A85BA"/>
</linearGradient>
<linearGradient id="paint71_linear_0_134" x1="126.997" y1="21.698" x2="126.997" y2="22.6553" gradientUnits="userSpaceOnUse">
<stop stop-color="#9087CA"/>
<stop offset="1" stop-color="#6A629A"/>
</linearGradient>
</defs>
</svg>
