<svg width="1021" height="399" viewBox="0 0 1021 399" fill="none" xmlns="http://www.w3.org/2000/svg">
<path fill-rule="evenodd" clip-rule="evenodd" d="M14.9047 261.447C14.9047 261.447 -2.63512 253.901 0.340312 241.053C0.340312 241.053 32.8775 234.651 55.8469 220.404C78.8162 206.158 130.257 186.308 140.562 167.788C150.868 149.267 166.876 127.509 194.345 129.717C221.813 131.925 251.96 61.7115 405.345 40.4121C558.73 19.1134 661.403 42.8938 740.304 76.8494C819.206 110.804 917.399 210.743 938.358 263.712C959.317 316.68 925.05 305.661 851.453 240.635C777.857 175.609 653.216 158.266 544.894 219.756C436.572 281.245 392.598 304.699 288.82 320.466C185.041 336.235 93.6934 327.141 51.9652 312.515C17.038 300.276 5.52928 293.317 4.26211 282.57C2.99495 271.824 14.9047 261.447 14.9047 261.447" fill="url(#paint0_linear_108_6)"/>
<path fill-rule="evenodd" clip-rule="evenodd" d="M30.8189 286.962C48.3098 286.961 68.9618 279.172 95.7277 262.674C116.508 249.862 169.591 228.277 169.591 228.277C169.591 228.277 169.51 228.276 169.35 228.276C166.245 228.276 133.75 228.676 103.992 245.032C77.6431 259.513 34.6701 260.614 22.2018 260.614C19.9633 260.614 18.7117 260.579 18.7117 260.579C18.7117 260.579 -1.17821 281.948 20.7416 286.046C23.991 286.655 27.3367 286.962 30.8189 286.962" fill="#1F1D79"/>
<path fill-rule="evenodd" clip-rule="evenodd" d="M65.648 316.828C65.648 316.828 79.3566 321.745 92.9208 317.869C97.4369 316.577 97.0919 311.283 102.683 308.538C108.442 305.703 116.408 308.374 123.073 303.439C127.132 300.431 129.651 290.568 133.966 286.612C141.515 279.707 156.266 278.586 165.025 273.923C171.114 270.678 170.881 263.34 177.579 261.101C186.146 258.236 192.138 260.175 201.731 258.836C206.44 258.178 210.25 253.589 218.119 252.932C227.288 252.168 236.071 256.868 241.718 256.868C255.483 256.868 259.822 249.77 270.555 250.965C347.44 259.52 430.496 234.082 463.444 203.927C496.391 173.772 532.774 137.445 590.788 148.865C648.802 160.286 658.967 184.076 658.967 184.076C658.967 184.076 595.849 191.839 544.697 219.656C493.545 247.472 402.003 319.723 268.301 331.644C134.592 343.565 65.648 316.828 65.648 316.828" fill="url(#paint1_linear_108_6)"/>
<path fill-rule="evenodd" clip-rule="evenodd" d="M505.291 41.0856C505.291 41.0856 568.195 10.8043 588.182 2.44329C608.167 -5.91774 597.011 7.77797 603.934 34.3879C610.857 60.9987 505.291 41.0856 505.291 41.0856" fill="url(#paint2_linear_108_6)"/>
<path fill-rule="evenodd" clip-rule="evenodd" d="M906.639 235.409C906.639 235.409 950.709 234.553 962.741 218.397C974.774 202.241 1021.9 222.556 1019.44 232.335C1016.98 242.113 977.998 232.254 974.951 257.081C971.902 281.909 958.852 291.009 943.851 290.416C928.851 289.821 906.639 235.409 906.639 235.409" fill="url(#paint3_linear_108_6)"/>
<path fill-rule="evenodd" clip-rule="evenodd" d="M871.329 243.196C871.329 243.196 911.811 253.838 931.676 285.099C951.543 316.36 923.601 320.42 932.863 346.613C942.124 372.805 947.764 392.915 937.329 396.634C926.894 400.353 891.962 359.714 884.384 329.973C876.805 300.23 899.523 252.318 871.329 243.196" fill="url(#paint4_linear_108_6)"/>
<path fill-rule="evenodd" clip-rule="evenodd" d="M2.11698 242.598C-1.79835 272.317 63.9038 254.921 77.3588 251.083C99.7355 244.696 121.39 235.9 144.064 230.495C167.74 224.851 189.443 226.505 213.457 228.434C225.339 229.389 239.283 230.42 250.7 226.513C262.037 222.635 268.616 213.268 273.519 203.023C274.265 201.456 275.324 203.289 274.947 204.356C271.625 213.835 266.763 221.299 258.018 226.843C247.748 233.35 234.445 232.881 222.764 232.568C207.102 232.146 191.642 228.905 175.932 229.466C160.744 230.009 145.837 233.324 131.299 237.562C114.266 242.525 -7.93612 288.547 0.408031 241.836C0.736983 240.041 2.30152 241.207 2.11698 242.598" fill="white"/>
<path fill-rule="evenodd" clip-rule="evenodd" d="M229.462 195.907C227.492 196.047 226.647 198.291 226.448 200.068C226.248 201.887 226.695 203.894 227.851 205.32C230.427 208.493 234.311 206.386 235.619 203.191C236.432 201.213 236.528 198.776 235.356 196.923C234.295 195.246 232.461 194.592 230.595 195.149C228.705 195.711 227.181 197.353 226.599 199.259C226.256 200.412 226.176 201.682 226.456 202.86C226.814 204.383 227.803 204.832 229.175 205.169C231.95 205.851 234.263 203.99 234.622 201.163C234.933 198.787 233.912 195.682 231.129 196.044C229.813 196.216 229.374 198.443 229.454 199.495C229.55 200.75 230.204 201.953 231.552 201.778C231.105 201.836 230.938 201.429 230.906 201.022C231.041 200.501 231.177 199.98 231.312 199.46C231.552 199.278 231.496 199.27 231.145 199.438C230.403 199.423 229.781 199.375 229.071 199.082C229.406 199.568 229.733 200.054 230.06 200.54C230.084 200.647 230.068 200.829 230.052 200.937C229.997 201.158 229.933 201.378 229.869 201.598C229.917 201.518 229.957 201.437 229.997 201.355C229.853 201.422 230.236 201.166 230.347 201.088C230.81 200.758 231.432 200.54 231.998 200.655C232.19 200.693 232.405 200.745 232.572 200.862C232.676 200.937 232.955 201.251 232.788 201.124C232.708 201.06 232.812 200.837 232.772 200.767C232.852 200.906 232.652 201.148 232.772 200.864C232.66 201.131 232.724 201.127 232.509 201.34C231.727 202.117 230.547 202.346 229.789 201.365C229.51 201.004 229.382 200.481 229.398 200.241C229.422 199.83 229.885 199.141 230.164 198.64C230.507 198.04 230.627 195.825 229.462 195.907" fill="#B6B3D9"/>
<path fill-rule="evenodd" clip-rule="evenodd" d="M222.55 200.259C225.035 197.913 228.999 196.655 232.411 197.308C236.375 198.071 237.861 201.002 240.363 203.666C241.134 204.487 241.735 202.991 241.703 202.403C241.475 198.196 237.837 194.84 233.824 193.808C228.967 192.556 224.686 194.827 221.957 198.722C221.657 199.152 221.803 200.963 222.55 200.259" fill="white"/>
<path fill-rule="evenodd" clip-rule="evenodd" d="M230.396 191.497C232.517 191.436 234.515 191.591 236.448 192.577C238.421 193.583 239.338 195.15 240.771 196.693C241.566 197.55 242.27 195.993 242.196 195.339C241.574 190.006 234.859 186.848 230.24 189.375C229.667 189.69 229.503 191.523 230.396 191.497" fill="white"/>
<path fill-rule="evenodd" clip-rule="evenodd" d="M232.179 204.901C229.547 204.901 229.662 198.933 232.327 198.933C234.959 198.933 234.853 204.901 232.179 204.901" fill="white"/>
<path fill-rule="evenodd" clip-rule="evenodd" d="M885.821 245.512C893.227 265.091 886.981 287.479 885.548 307.574C884.493 322.344 885.681 336.755 892.956 349.953C899.007 360.933 907.762 370.188 916.421 379.149C920.076 382.933 923.719 386.721 928.077 389.709C930.062 391.07 932.71 393.187 935.23 393.517C942.922 394.521 942.067 384.781 941.596 379.547C940.519 367.57 934.398 356.788 931.639 345.209C929.445 336.003 929.514 326.583 932.459 317.545C934.514 311.238 937.631 306.74 936.512 299.633C935.513 293.293 932.005 286.209 929.998 280.088C929.677 279.106 930.742 277.534 931.337 278.956C934.518 286.553 940.986 296.443 940.505 304.942C940.302 308.516 938.276 311.486 936.862 314.658C933.185 322.905 932.129 331.667 933.642 340.568C936.963 360.104 950.325 377.708 941.434 397.799C941.226 398.267 940.771 398.93 940.158 398.856C926.791 397.238 917.779 386.207 909.147 376.9C899.273 366.254 889.852 354.637 885.417 340.594C881.023 326.681 882.031 311.959 883.655 297.686C885.656 280.1 887.278 263.653 885.023 245.996C884.958 245.49 885.533 244.752 885.821 245.512" fill="#11143F"/>
<path fill-rule="evenodd" clip-rule="evenodd" d="M938.558 298.039C942.035 289.974 949.589 287.899 956.709 283.851C964.852 279.222 969.315 272.099 971.105 263.017C972.05 258.225 972.291 253.642 974.92 249.34C980.578 240.079 991.769 237.27 1001.61 235.062C1007.12 233.826 1018.04 233.955 1013.58 226.136C1010.71 221.109 998.598 217.793 993.705 216.728C993.333 216.647 993.328 215.803 993.726 215.844C1001.17 216.608 1016.97 219.223 1019.68 227.994C1022.79 238.069 1004.54 238.845 999.05 240.161C990.145 242.294 979.933 245.486 975.894 254.703C972.806 261.747 973.809 269.438 969.712 276.246C962.647 287.986 946.354 288.532 940.069 299.905C939.234 301.416 938.147 298.996 938.558 298.039" fill="#11143F"/>
<path fill-rule="evenodd" clip-rule="evenodd" d="M570.388 160.878C531.508 163.351 503.304 187.846 474.623 211.589C447.641 233.926 418.977 249.472 385.042 258.591C353.263 267.13 320.039 271.792 287.319 274.862C255.209 277.875 221.551 279.132 190.524 268.939C189.618 268.641 189.898 266.479 190.981 266.748C224.494 275.099 259.884 273.736 293.959 270.063C327.577 266.438 361.724 261.642 394.125 251.756C410.135 246.871 425.768 240.544 440.231 232.074C456.061 222.804 469.963 210.832 484.036 199.174C508.278 179.094 537.072 157.187 570.426 159.287C571.137 159.332 571.093 160.833 570.388 160.878" fill="white"/>
<path fill-rule="evenodd" clip-rule="evenodd" d="M591.757 171.473C528.34 167.921 486.777 221.434 437.079 251.238C412.306 266.095 384.48 273.597 356.508 279.871C326.748 286.546 296.539 291.487 266.089 293.52C230.017 295.928 194.692 293.567 159.398 285.772C158.34 285.539 158.444 283.147 159.454 283.354C222.375 296.175 288.158 290.545 350.437 277.016C380.005 270.593 409.729 263.096 435.924 247.436C461.392 232.211 483.052 211.642 507.686 195.216C532.429 178.716 561.431 165.839 591.797 169.823C592.52 169.918 592.493 171.515 591.757 171.473" fill="white"/>
<path fill-rule="evenodd" clip-rule="evenodd" d="M137.497 301.372C203.094 312.897 270.567 306.092 335.523 293.379C364.517 287.705 393.257 280.084 420.555 268.679C448.63 256.949 473.177 240.616 496.964 221.861C519.384 204.183 542.503 186.397 571.654 182.527C572.705 182.388 572.694 184.835 571.593 184.999C542.455 189.353 519.188 207.96 496.827 225.799C474.644 243.494 451.792 258.848 425.686 270.247C370.394 294.39 308.277 303.826 248.525 308.875C211.449 312.008 173.627 312.161 137.264 303.457C136.486 303.272 136.663 301.224 137.497 301.372" fill="white"/>
<path fill-rule="evenodd" clip-rule="evenodd" d="M118.401 314.814C143.109 317.052 167.232 321.559 192.164 322.154C217.017 322.748 241.444 320.163 266.184 318.509C266.673 318.477 266.697 319.625 266.264 319.72C242.117 324.975 216.704 325.67 192.092 325.082C167.849 324.503 141.634 323.212 118.225 316.345C117.68 316.184 117.776 314.757 118.401 314.814" fill="#E0E0E0"/>
<path fill-rule="evenodd" clip-rule="evenodd" d="M381.781 212.748C382.88 222.18 395.074 256.909 427.312 284.644C455.433 308.837 517.4 324.401 522.476 309.429C531.548 282.672 451.855 247.629 449.516 209.593C447.179 171.558 376.076 163.836 381.781 212.748" fill="url(#paint5_linear_108_6)"/>
<path fill-rule="evenodd" clip-rule="evenodd" d="M370.645 188.515C380.068 198.051 384.003 209.269 388.003 221.852C392.502 236.004 397.888 249.483 406.573 261.655C426.482 289.56 455.524 302.079 487.665 310.673C494.207 312.422 506.113 316.686 513.284 314.866C529.849 310.663 516.266 291.201 510.28 284.706C500.002 273.558 486.531 265.708 475.642 255.166C466.098 245.925 457.847 235.421 452.152 223.371C448.251 215.118 445.443 206.438 440.539 198.675C435.22 190.256 428.352 183.004 421.578 175.762C420.96 175.101 421.479 172.893 422.398 173.774C432.162 183.138 441.244 193.07 447.117 205.393C454.448 220.773 460.538 234.521 472.493 247.065C488.344 263.696 517.652 276.539 522.987 300.802C529.033 328.294 494.638 317.198 479.996 313.019C452.805 305.26 428.684 294.272 410.21 272.163C401.373 261.587 394.4 249.517 389.702 236.56C383.944 220.685 381.843 202.735 370.163 189.681C369.818 189.288 370.123 187.986 370.645 188.515" fill="white"/>
<path fill-rule="evenodd" clip-rule="evenodd" d="M268.493 109.25C263.724 107.435 259.132 108.761 255.38 111.591C247.227 115.048 237.466 122.621 240.93 132.002C244.691 142.186 261.268 136.639 267.437 132.258C271.709 129.223 274.893 125.025 275.021 119.572C275.141 114.991 272.773 110.882 268.493 109.25" fill="url(#paint6_linear_108_6)"/>
<path fill-rule="evenodd" clip-rule="evenodd" d="M310.406 97.5741C305.863 98.4524 301.441 100.483 298.463 103.92C295.082 105.663 292.072 107.981 289.836 110.816C286.923 114.499 286.326 121.164 290.103 124.483C293.823 127.747 299.157 125.947 303.273 124.574C312.714 121.425 328.959 114.516 323.754 101.655C321.519 96.1248 315.329 96.6227 310.406 97.5741" fill="url(#paint7_linear_108_6)"/>
<path fill-rule="evenodd" clip-rule="evenodd" d="M303.676 91.085C305.83 88.3853 306.577 80.9891 301.876 80.2577C296.427 79.4099 290.022 81.4939 285.939 85.5034C282.572 87.4962 280.048 91.1127 278.778 94.9186C278.184 96.6904 278.328 102.693 281.655 102.443C290.343 101.791 298.235 97.8853 303.676 91.085" fill="url(#paint8_linear_108_6)"/>
<path fill-rule="evenodd" clip-rule="evenodd" d="M350.865 64.9376C348.256 64.255 345.76 64.8541 343.608 66.1784C335.709 66.306 327.73 72.1477 322.608 77.4368C320.103 80.0188 320.007 86.3434 323.355 88.3046C329.223 91.7432 335.717 91.5339 342.123 89.7412C348.088 88.0712 355.489 85.9215 357.512 79.3892C359.238 73.8394 357.031 66.5474 350.865 64.9376" fill="url(#paint9_linear_108_6)"/>
<path fill-rule="evenodd" clip-rule="evenodd" d="M409.423 57.5839C404.927 54.1904 398.832 52.502 393.478 53.4988C385.056 53.1454 376.296 56.8164 378.956 66.932C381.839 77.8949 400.519 74.8911 407.974 71.3973C413.006 69.0377 413.831 60.9118 409.423 57.5839" fill="url(#paint10_linear_108_6)"/>
<path fill-rule="evenodd" clip-rule="evenodd" d="M367.683 108.556L367.563 108.708C367.379 109.082 367.427 109.333 367.683 108.556ZM383.552 99.6781C380.484 107.932 372.536 114.857 363.231 112.543C360.295 112.939 357.913 108.569 358.547 105.265C359.59 99.857 362.365 95.3579 367.153 92.4936C370.995 90.1964 375.471 89.152 379.905 90.0063C383.866 90.7699 384.73 96.5114 383.552 99.6781V99.6781Z" fill="url(#paint11_linear_108_6)"/>
<path fill-rule="evenodd" clip-rule="evenodd" d="M431.159 80.6694C427.146 79.1068 422.856 78.5155 418.639 79.7093C418.013 79.8869 417.427 80.14 416.883 80.4501C415.021 80.6372 413.166 81.3065 411.572 82.3252C407.88 84.6847 407.964 91.7239 411.364 94.1879C417.206 98.4209 425.746 97.7533 430.947 92.7788C432.745 91.0595 433.668 88.9965 433.675 86.4489C433.679 84.6333 433.182 81.4567 431.159 80.6694" fill="url(#paint12_linear_108_6)"/>
<path fill-rule="evenodd" clip-rule="evenodd" d="M455.079 45.7296C449.566 42.8869 440.199 42.0353 434.456 45.7304C432.53 46.2418 430.733 47.4521 429.384 49.2759C428.069 51.0523 427.392 55.328 429.874 56.5608C438.273 60.7368 447.044 59.73 454.92 54.9195C457.473 53.3602 457.973 47.2213 455.079 45.7296" fill="url(#paint13_linear_108_6)"/>
<path fill-rule="evenodd" clip-rule="evenodd" d="M490.727 59.4993C484.825 55.9079 472.539 53.0503 467.89 59.7255L467.757 59.8291C465.727 61.6988 463.989 67.8419 467.589 69.2958C474.769 72.1932 482.403 72.4481 489.667 69.6582C493.264 68.2768 494.097 61.5483 490.727 59.4993" fill="url(#paint14_linear_108_6)"/>
<path fill-rule="evenodd" clip-rule="evenodd" d="M227.97 124.583C224.993 123.884 221.781 124.676 219.818 126.663C215.6 128.74 212.051 131.863 209.17 135.691C207.625 137.743 206.844 143.631 210.562 144.093C218.9 145.128 226.916 140.057 230.055 132.433C231.085 129.923 231.431 125.398 227.97 124.583" fill="url(#paint15_linear_108_6)"/>
<path fill-rule="evenodd" clip-rule="evenodd" d="M518.77 49.3892C514.146 45.0728 507.213 43.5837 501.173 45.7367C497.851 46.9206 497.312 52.9226 500.223 54.7688C505.09 57.8549 512.342 60.7165 517.453 56.7381C517.648 56.5863 517.822 56.4017 517.979 56.1972C519.988 55.1012 520.25 50.7712 518.77 49.3892" fill="url(#paint16_linear_108_6)"/>
<defs>
<linearGradient id="paint0_linear_108_6" x1="472.219" y1="32.3267" x2="472.219" y2="328.738" gradientUnits="userSpaceOnUse">
<stop stop-color="#02011F"/>
<stop offset="0.463542" stop-color="#070634"/>
<stop offset="1" stop-color="#E146AD"/>
</linearGradient>
<linearGradient id="paint1_linear_108_6" x1="362.308" y1="146.713" x2="362.308" y2="334.706" gradientUnits="userSpaceOnUse">
<stop stop-color="#8491FF"/>
<stop offset="1" stop-color="#FF84CE"/>
</linearGradient>
<linearGradient id="paint2_linear_108_6" x1="554.776" y1="0" x2="554.776" y2="48.2414" gradientUnits="userSpaceOnUse">
<stop stop-color="#02011F"/>
<stop offset="0.463542" stop-color="#070634"/>
<stop offset="1" stop-color="#E146AD"/>
</linearGradient>
<linearGradient id="paint3_linear_108_6" x1="963.086" y1="212.361" x2="963.086" y2="290.443" gradientUnits="userSpaceOnUse">
<stop stop-color="#02011F"/>
<stop offset="0.463542" stop-color="#070634"/>
<stop offset="1" stop-color="#E146AD"/>
</linearGradient>
<linearGradient id="paint4_linear_108_6" x1="907.137" y1="243.196" x2="907.137" y2="396.872" gradientUnits="userSpaceOnUse">
<stop stop-color="#02011F"/>
<stop offset="0.463542" stop-color="#070634"/>
<stop offset="1" stop-color="#E146AD"/>
</linearGradient>
<linearGradient id="paint5_linear_108_6" x1="452.325" y1="178.543" x2="452.325" y2="315.31" gradientUnits="userSpaceOnUse">
<stop stop-color="#02011F"/>
<stop offset="0.463542" stop-color="#070634"/>
<stop offset="1" stop-color="#E146AD"/>
</linearGradient>
<linearGradient id="paint6_linear_108_6" x1="257.619" y1="108.419" x2="257.619" y2="137.761" gradientUnits="userSpaceOnUse">
<stop stop-color="#E1E5FF"/>
<stop offset="1" stop-color="#7C8AFD"/>
</linearGradient>
<linearGradient id="paint7_linear_108_6" x1="306.109" y1="96.98" x2="306.109" y2="126.323" gradientUnits="userSpaceOnUse">
<stop stop-color="#E1E5FF"/>
<stop offset="1" stop-color="#7C8AFD"/>
</linearGradient>
<linearGradient id="paint8_linear_108_6" x1="291.934" y1="80.0707" x2="291.934" y2="102.451" gradientUnits="userSpaceOnUse">
<stop stop-color="#E1E5FF"/>
<stop offset="1" stop-color="#7C8AFD"/>
</linearGradient>
<linearGradient id="paint9_linear_108_6" x1="339.43" y1="64.6534" x2="339.43" y2="91.0121" gradientUnits="userSpaceOnUse">
<stop stop-color="#E1E5FF"/>
<stop offset="1" stop-color="#7C8AFD"/>
</linearGradient>
<linearGradient id="paint10_linear_108_6" x1="395.38" y1="53.2147" x2="395.38" y2="74.6" gradientUnits="userSpaceOnUse">
<stop stop-color="#E1E5FF"/>
<stop offset="1" stop-color="#7C8AFD"/>
</linearGradient>
<linearGradient id="paint11_linear_108_6" x1="371.241" y1="89.7102" x2="371.241" y2="112.995" gradientUnits="userSpaceOnUse">
<stop stop-color="#E1E5FF"/>
<stop offset="1" stop-color="#7C8AFD"/>
</linearGradient>
<linearGradient id="paint12_linear_108_6" x1="421.242" y1="79.076" x2="421.242" y2="96.98" gradientUnits="userSpaceOnUse">
<stop stop-color="#E1E5FF"/>
<stop offset="1" stop-color="#7C8AFD"/>
</linearGradient>
<linearGradient id="paint13_linear_108_6" x1="442.627" y1="43.268" x2="442.627" y2="59.1827" gradientUnits="userSpaceOnUse">
<stop stop-color="#E1E5FF"/>
<stop offset="1" stop-color="#7C8AFD"/>
</linearGradient>
<linearGradient id="paint14_linear_108_6" x1="479.181" y1="55.7014" x2="479.181" y2="71.616" gradientUnits="userSpaceOnUse">
<stop stop-color="#E1E5FF"/>
<stop offset="1" stop-color="#7C8AFD"/>
</linearGradient>
<linearGradient id="paint15_linear_108_6" x1="219.324" y1="124.333" x2="219.324" y2="144.227" gradientUnits="userSpaceOnUse">
<stop stop-color="#E1E5FF"/>
<stop offset="1" stop-color="#7C8AFD"/>
</linearGradient>
<linearGradient id="paint16_linear_108_6" x1="509.02" y1="44.76" x2="509.02" y2="58.6854" gradientUnits="userSpaceOnUse">
<stop stop-color="#E1E5FF"/>
<stop offset="1" stop-color="#7C8AFD"/>
</linearGradient>
</defs>
</svg>
